<?xml version="1.0" encoding="utf-8" standalone="no"?>
<!DOCTYPE svg PUBLIC "-//W3C//DTD SVG 1.1//EN"
  "http://www.w3.org/Graphics/SVG/1.1/DTD/svg11.dtd">
<!-- Created with matplotlib (https://matplotlib.org/) -->
<svg height="168.923077pt" version="1.1" viewBox="0 0 219.6 168.923077" width="219.6pt" xmlns="http://www.w3.org/2000/svg" xmlns:xlink="http://www.w3.org/1999/xlink">
 <defs>
  <style type="text/css">
*{stroke-linecap:butt;stroke-linejoin:round;}
  </style>
 </defs>
 <g id="figure_1">
  <g id="patch_1">
   <path d="M 0 168.923077 
L 219.6 168.923077 
L 219.6 0 
L 0 0 
z
" style="fill:none;"/>
  </g>
  <g id="axes_1">
   <g id="patch_2">
    <path d="M 49.28375 134.883077 
L 210.428099 134.883077 
L 210.428099 11.52 
L 49.28375 11.52 
z
" style="fill:none;"/>
   </g>
   <g id="PolyCollection_1">
    <defs>
     <path d="M 56.608493 -155.814842 
L 56.608493 -124.333072 
L 58.088239 -106.425946 
L 59.567985 -89.698911 
L 61.047731 -86.511575 
L 62.527478 -79.469036 
L 64.007224 -75.508451 
L 65.48697 -71.954275 
L 66.966716 -69.008294 
L 68.446462 -59.607475 
L 69.926208 -57.143984 
L 71.405954 -55.843603 
L 72.8857 -50.322774 
L 74.365446 -47.30471 
L 75.845192 -46.256668 
L 77.324938 -43.519486 
L 78.804684 -41.960743 
L 80.284431 -40.623006 
L 81.764177 -38.878792 
L 83.243923 -38.112684 
L 84.723669 -37.965504 
L 86.203415 -37.335969 
L 87.683161 -37.436809 
L 89.162907 -37.304631 
L 90.642653 -36.510113 
L 92.122399 -35.960918 
L 93.602145 -36.378828 
L 95.081891 -36.024491 
L 96.561638 -35.760379 
L 98.041384 -33.458083 
L 99.52113 -33.415302 
L 101.000876 -32.10241 
L 102.480622 -32.044854 
L 103.960368 -31.591901 
L 105.440114 -29.505321 
L 106.91986 -30.078662 
L 108.399606 -29.299573 
L 109.879352 -28.968579 
L 111.359098 -29.356951 
L 112.838845 -28.715656 
L 114.318591 -26.946013 
L 115.798337 -26.977307 
L 117.278083 -26.553939 
L 118.757829 -25.425764 
L 120.237575 -24.822167 
L 121.717321 -25.022539 
L 123.197067 -24.229292 
L 124.676813 -23.845241 
L 126.156559 -23.904651 
L 127.636305 -23.28626 
L 129.116052 -23.361912 
L 130.595798 -23.494855 
L 132.075544 -23.553437 
L 133.55529 -23.383543 
L 135.035036 -23.322112 
L 136.514782 -22.707743 
L 137.994528 -22.365515 
L 139.474274 -22.725489 
L 140.95402 -22.554818 
L 142.433766 -22.285304 
L 143.913512 -22.062065 
L 145.393259 -21.741398 
L 146.873005 -22.324276 
L 148.352751 -22.185727 
L 149.832497 -22.175912 
L 151.312243 -22.119486 
L 152.791989 -22.192398 
L 154.271735 -21.805142 
L 155.751481 -21.787789 
L 157.231227 -21.708142 
L 158.710973 -21.570899 
L 160.190719 -21.545366 
L 161.670466 -21.246899 
L 163.150212 -21.309675 
L 164.629958 -21.233489 
L 166.109704 -20.090355 
L 167.58945 -19.943231 
L 169.069196 -20.134191 
L 170.548942 -20.188534 
L 172.028688 -20.202937 
L 173.508434 -19.493326 
L 174.98818 -19.469745 
L 176.467926 -19.147181 
L 177.947673 -19.012079 
L 179.427419 -19.11987 
L 180.907165 -19.140843 
L 182.386911 -18.910673 
L 183.866657 -19.164261 
L 185.346403 -19.126403 
L 186.826149 -18.916552 
L 188.305895 -19.110712 
L 189.785641 -18.752956 
L 191.265387 -18.787189 
L 192.745133 -19.129984 
L 194.224879 -19.108257 
L 195.704626 -18.973905 
L 197.184372 -18.748062 
L 198.664118 -18.636524 
L 200.143864 -18.825547 
L 201.62361 -18.682839 
L 203.103356 -18.461586 
L 203.103356 -28.87076 
L 203.103356 -28.87076 
L 201.62361 -28.820855 
L 200.143864 -29.09062 
L 198.664118 -29.509595 
L 197.184372 -29.021523 
L 195.704626 -28.975482 
L 194.224879 -29.226512 
L 192.745133 -29.716001 
L 191.265387 -29.580954 
L 189.785641 -29.47339 
L 188.305895 -29.807966 
L 186.826149 -29.758125 
L 185.346403 -29.784695 
L 183.866657 -30.042838 
L 182.386911 -29.355418 
L 180.907165 -29.820248 
L 179.427419 -29.801695 
L 177.947673 -29.384313 
L 176.467926 -29.416837 
L 174.98818 -29.827384 
L 173.508434 -30.221535 
L 172.028688 -30.87397 
L 170.548942 -30.638983 
L 169.069196 -30.306617 
L 167.58945 -30.450384 
L 166.109704 -30.591641 
L 164.629958 -30.889343 
L 163.150212 -31.312374 
L 161.670466 -31.659735 
L 160.190719 -31.454171 
L 158.710973 -31.07998 
L 157.231227 -31.598691 
L 155.751481 -31.777916 
L 154.271735 -31.923164 
L 152.791989 -32.025876 
L 151.312243 -32.491892 
L 149.832497 -32.393777 
L 148.352751 -32.69182 
L 146.873005 -32.615789 
L 145.393259 -32.470743 
L 143.913512 -32.596257 
L 142.433766 -32.658409 
L 140.95402 -32.80616 
L 139.474274 -33.281747 
L 137.994528 -33.179593 
L 136.514782 -33.182065 
L 135.035036 -33.644802 
L 133.55529 -33.843102 
L 132.075544 -33.924156 
L 130.595798 -33.689747 
L 129.116052 -33.964303 
L 127.636305 -33.904895 
L 126.156559 -34.308491 
L 124.676813 -34.461559 
L 123.197067 -35.233608 
L 121.717321 -35.679142 
L 120.237575 -36.347167 
L 118.757829 -35.849348 
L 117.278083 -36.933261 
L 115.798337 -36.842775 
L 114.318591 -38.955366 
L 112.838845 -39.351587 
L 111.359098 -39.876003 
L 109.879352 -40.21019 
L 108.399606 -40.35104 
L 106.91986 -41.235302 
L 105.440114 -41.432684 
L 103.960368 -43.122408 
L 102.480622 -43.127243 
L 101.000876 -43.07951 
L 99.52113 -44.686848 
L 98.041384 -44.808656 
L 96.561638 -45.570458 
L 95.081891 -46.235046 
L 93.602145 -46.720958 
L 92.122399 -46.540773 
L 90.642653 -46.403407 
L 89.162907 -47.733578 
L 87.683161 -47.540089 
L 86.203415 -47.67622 
L 84.723669 -48.33914 
L 83.243923 -48.898824 
L 81.764177 -49.98525 
L 80.284431 -51.343689 
L 78.804684 -52.766037 
L 77.324938 -54.434902 
L 75.845192 -58.440164 
L 74.365446 -59.51303 
L 72.8857 -63.269274 
L 71.405954 -71.230334 
L 69.926208 -71.396398 
L 68.446462 -74.446112 
L 66.966716 -86.243968 
L 65.48697 -91.265882 
L 64.007224 -95.366833 
L 62.527478 -99.450071 
L 61.047731 -109.033365 
L 59.567985 -115.327409 
L 58.088239 -134.825943 
L 56.608493 -155.814842 
z
" id="md8701fa50b" style="stroke:#1f77b4;stroke-opacity:0.2;"/>
    </defs>
    <g clip-path="url(#p29f864e1b7)">
     <use style="fill:#1f77b4;fill-opacity:0.2;stroke:#1f77b4;stroke-opacity:0.2;" x="0" xlink:href="#md8701fa50b" y="168.923077"/>
    </g>
   </g>
   <g id="matplotlib.axis_1">
    <g id="xtick_1">
     <g id="line2d_1">
      <defs>
       <path d="M 0 0 
L 0 3.5 
" id="m2da5aa9814" style="stroke:#000000;stroke-width:0.8;"/>
      </defs>
      <g>
       <use style="stroke:#000000;stroke-width:0.8;" x="56.608493" xlink:href="#m2da5aa9814" y="134.883077"/>
      </g>
     </g>
     <g id="text_1">
      <!-- 0 -->
      <defs>
       <path d="M 4.15625 35.296875 
Q 4.15625 48 6.765625 55.734375 
Q 9.375 63.484375 14.515625 67.671875 
Q 19.671875 71.875 27.484375 71.875 
Q 33.25 71.875 37.59375 69.546875 
Q 41.9375 67.234375 44.765625 62.859375 
Q 47.609375 58.5 49.21875 52.21875 
Q 50.828125 45.953125 50.828125 35.296875 
Q 50.828125 22.703125 48.234375 14.96875 
Q 45.65625 7.234375 40.5 3 
Q 35.359375 -1.21875 27.484375 -1.21875 
Q 17.140625 -1.21875 11.234375 6.203125 
Q 4.15625 15.140625 4.15625 35.296875 
z
M 13.1875 35.296875 
Q 13.1875 17.671875 17.3125 11.828125 
Q 21.4375 6 27.484375 6 
Q 33.546875 6 37.671875 11.859375 
Q 41.796875 17.71875 41.796875 35.296875 
Q 41.796875 52.984375 37.671875 58.78125 
Q 33.546875 64.59375 27.390625 64.59375 
Q 21.34375 64.59375 17.71875 59.46875 
Q 13.1875 52.9375 13.1875 35.296875 
z
" id="ArialMT-48"/>
      </defs>
      <g transform="translate(54.384118 147.609327)scale(0.08 -0.08)">
       <use xlink:href="#ArialMT-48"/>
      </g>
     </g>
    </g>
    <g id="xtick_2">
     <g id="line2d_2">
      <g>
       <use style="stroke:#000000;stroke-width:0.8;" x="86.203415" xlink:href="#m2da5aa9814" y="134.883077"/>
      </g>
     </g>
     <g id="text_2">
      <!-- 20 -->
      <defs>
       <path d="M 50.34375 8.453125 
L 50.34375 0 
L 3.03125 0 
Q 2.9375 3.171875 4.046875 6.109375 
Q 5.859375 10.9375 9.828125 15.625 
Q 13.8125 20.3125 21.34375 26.46875 
Q 33.015625 36.03125 37.109375 41.625 
Q 41.21875 47.21875 41.21875 52.203125 
Q 41.21875 57.421875 37.46875 61 
Q 33.734375 64.59375 27.734375 64.59375 
Q 21.390625 64.59375 17.578125 60.78125 
Q 13.765625 56.984375 13.71875 50.25 
L 4.6875 51.171875 
Q 5.609375 61.28125 11.65625 66.578125 
Q 17.71875 71.875 27.9375 71.875 
Q 38.234375 71.875 44.234375 66.15625 
Q 50.25 60.453125 50.25 52 
Q 50.25 47.703125 48.484375 43.546875 
Q 46.734375 39.40625 42.65625 34.8125 
Q 38.578125 30.21875 29.109375 22.21875 
Q 21.1875 15.578125 18.9375 13.203125 
Q 16.703125 10.84375 15.234375 8.453125 
z
" id="ArialMT-50"/>
      </defs>
      <g transform="translate(81.754665 147.609327)scale(0.08 -0.08)">
       <use xlink:href="#ArialMT-50"/>
       <use x="55.615234" xlink:href="#ArialMT-48"/>
      </g>
     </g>
    </g>
    <g id="xtick_3">
     <g id="line2d_3">
      <g>
       <use style="stroke:#000000;stroke-width:0.8;" x="115.798337" xlink:href="#m2da5aa9814" y="134.883077"/>
      </g>
     </g>
     <g id="text_3">
      <!-- 40 -->
      <defs>
       <path d="M 32.328125 0 
L 32.328125 17.140625 
L 1.265625 17.140625 
L 1.265625 25.203125 
L 33.9375 71.578125 
L 41.109375 71.578125 
L 41.109375 25.203125 
L 50.78125 25.203125 
L 50.78125 17.140625 
L 41.109375 17.140625 
L 41.109375 0 
z
M 32.328125 25.203125 
L 32.328125 57.46875 
L 9.90625 25.203125 
z
" id="ArialMT-52"/>
      </defs>
      <g transform="translate(111.349587 147.609327)scale(0.08 -0.08)">
       <use xlink:href="#ArialMT-52"/>
       <use x="55.615234" xlink:href="#ArialMT-48"/>
      </g>
     </g>
    </g>
    <g id="xtick_4">
     <g id="line2d_4">
      <g>
       <use style="stroke:#000000;stroke-width:0.8;" x="145.393259" xlink:href="#m2da5aa9814" y="134.883077"/>
      </g>
     </g>
     <g id="text_4">
      <!-- 60 -->
      <defs>
       <path d="M 49.75 54.046875 
L 41.015625 53.375 
Q 39.84375 58.546875 37.703125 60.890625 
Q 34.125 64.65625 28.90625 64.65625 
Q 24.703125 64.65625 21.53125 62.3125 
Q 17.390625 59.28125 14.984375 53.46875 
Q 12.59375 47.65625 12.5 36.921875 
Q 15.671875 41.75 20.265625 44.09375 
Q 24.859375 46.4375 29.890625 46.4375 
Q 38.671875 46.4375 44.84375 39.96875 
Q 51.03125 33.5 51.03125 23.25 
Q 51.03125 16.5 48.125 10.71875 
Q 45.21875 4.9375 40.140625 1.859375 
Q 35.0625 -1.21875 28.609375 -1.21875 
Q 17.625 -1.21875 10.6875 6.859375 
Q 3.765625 14.9375 3.765625 33.5 
Q 3.765625 54.25 11.421875 63.671875 
Q 18.109375 71.875 29.4375 71.875 
Q 37.890625 71.875 43.28125 67.140625 
Q 48.6875 62.40625 49.75 54.046875 
z
M 13.875 23.1875 
Q 13.875 18.65625 15.796875 14.5 
Q 17.71875 10.359375 21.1875 8.171875 
Q 24.65625 6 28.46875 6 
Q 34.03125 6 38.03125 10.484375 
Q 42.046875 14.984375 42.046875 22.703125 
Q 42.046875 30.125 38.078125 34.390625 
Q 34.125 38.671875 28.125 38.671875 
Q 22.171875 38.671875 18.015625 34.390625 
Q 13.875 30.125 13.875 23.1875 
z
" id="ArialMT-54"/>
      </defs>
      <g transform="translate(140.944509 147.609327)scale(0.08 -0.08)">
       <use xlink:href="#ArialMT-54"/>
       <use x="55.615234" xlink:href="#ArialMT-48"/>
      </g>
     </g>
    </g>
    <g id="xtick_5">
     <g id="line2d_5">
      <g>
       <use style="stroke:#000000;stroke-width:0.8;" x="174.98818" xlink:href="#m2da5aa9814" y="134.883077"/>
      </g>
     </g>
     <g id="text_5">
      <!-- 80 -->
      <defs>
       <path d="M 17.671875 38.8125 
Q 12.203125 40.828125 9.5625 44.53125 
Q 6.9375 48.25 6.9375 53.421875 
Q 6.9375 61.234375 12.546875 66.546875 
Q 18.171875 71.875 27.484375 71.875 
Q 36.859375 71.875 42.578125 66.421875 
Q 48.296875 60.984375 48.296875 53.171875 
Q 48.296875 48.1875 45.671875 44.5 
Q 43.0625 40.828125 37.75 38.8125 
Q 44.34375 36.671875 47.78125 31.875 
Q 51.21875 27.09375 51.21875 20.453125 
Q 51.21875 11.28125 44.71875 5.03125 
Q 38.234375 -1.21875 27.640625 -1.21875 
Q 17.046875 -1.21875 10.546875 5.046875 
Q 4.046875 11.328125 4.046875 20.703125 
Q 4.046875 27.6875 7.59375 32.390625 
Q 11.140625 37.109375 17.671875 38.8125 
z
M 15.921875 53.71875 
Q 15.921875 48.640625 19.1875 45.40625 
Q 22.46875 42.1875 27.6875 42.1875 
Q 32.765625 42.1875 36.015625 45.375 
Q 39.265625 48.578125 39.265625 53.21875 
Q 39.265625 58.0625 35.90625 61.359375 
Q 32.5625 64.65625 27.59375 64.65625 
Q 22.5625 64.65625 19.234375 61.421875 
Q 15.921875 58.203125 15.921875 53.71875 
z
M 13.09375 20.65625 
Q 13.09375 16.890625 14.875 13.375 
Q 16.65625 9.859375 20.171875 7.921875 
Q 23.6875 6 27.734375 6 
Q 34.03125 6 38.125 10.046875 
Q 42.234375 14.109375 42.234375 20.359375 
Q 42.234375 26.703125 38.015625 30.859375 
Q 33.796875 35.015625 27.4375 35.015625 
Q 21.234375 35.015625 17.15625 30.90625 
Q 13.09375 26.8125 13.09375 20.65625 
z
" id="ArialMT-56"/>
      </defs>
      <g transform="translate(170.53943 147.609327)scale(0.08 -0.08)">
       <use xlink:href="#ArialMT-56"/>
       <use x="55.615234" xlink:href="#ArialMT-48"/>
      </g>
     </g>
    </g>
    <g id="xtick_6">
     <g id="line2d_6">
      <g>
       <use style="stroke:#000000;stroke-width:0.8;" x="204.583102" xlink:href="#m2da5aa9814" y="134.883077"/>
      </g>
     </g>
     <g id="text_6">
      <!-- 100 -->
      <defs>
       <path d="M 37.25 0 
L 28.46875 0 
L 28.46875 56 
Q 25.296875 52.984375 20.140625 49.953125 
Q 14.984375 46.921875 10.890625 45.40625 
L 10.890625 53.90625 
Q 18.265625 57.375 23.78125 62.296875 
Q 29.296875 67.234375 31.59375 71.875 
L 37.25 71.875 
z
" id="ArialMT-49"/>
      </defs>
      <g transform="translate(197.909977 147.609327)scale(0.08 -0.08)">
       <use xlink:href="#ArialMT-49"/>
       <use x="55.615234" xlink:href="#ArialMT-48"/>
       <use x="111.230469" xlink:href="#ArialMT-48"/>
      </g>
     </g>
    </g>
    <g id="text_7">
     <!-- Round -->
     <defs>
      <path d="M 7.859375 0 
L 7.859375 71.578125 
L 39.59375 71.578125 
Q 49.171875 71.578125 54.140625 69.640625 
Q 59.125 67.71875 62.109375 62.828125 
Q 65.09375 57.953125 65.09375 52.046875 
Q 65.09375 44.4375 60.15625 39.203125 
Q 55.21875 33.984375 44.921875 32.5625 
Q 48.6875 30.765625 50.640625 29 
Q 54.78125 25.203125 58.5 19.484375 
L 70.953125 0 
L 59.03125 0 
L 49.5625 14.890625 
Q 45.40625 21.34375 42.71875 24.75 
Q 40.046875 28.171875 37.921875 29.53125 
Q 35.796875 30.90625 33.59375 31.453125 
Q 31.984375 31.78125 28.328125 31.78125 
L 17.328125 31.78125 
L 17.328125 0 
z
M 17.328125 39.984375 
L 37.703125 39.984375 
Q 44.1875 39.984375 47.84375 41.328125 
Q 51.515625 42.671875 53.421875 45.625 
Q 55.328125 48.578125 55.328125 52.046875 
Q 55.328125 57.125 51.640625 60.390625 
Q 47.953125 63.671875 39.984375 63.671875 
L 17.328125 63.671875 
z
" id="ArialMT-82"/>
      <path d="M 3.328125 25.921875 
Q 3.328125 40.328125 11.328125 47.265625 
Q 18.015625 53.03125 27.640625 53.03125 
Q 38.328125 53.03125 45.109375 46.015625 
Q 51.90625 39.015625 51.90625 26.65625 
Q 51.90625 16.65625 48.90625 10.90625 
Q 45.90625 5.171875 40.15625 2 
Q 34.421875 -1.171875 27.640625 -1.171875 
Q 16.75 -1.171875 10.03125 5.8125 
Q 3.328125 12.796875 3.328125 25.921875 
z
M 12.359375 25.921875 
Q 12.359375 15.96875 16.703125 11.015625 
Q 21.046875 6.0625 27.640625 6.0625 
Q 34.1875 6.0625 38.53125 11.03125 
Q 42.875 16.015625 42.875 26.21875 
Q 42.875 35.84375 38.5 40.796875 
Q 34.125 45.75 27.640625 45.75 
Q 21.046875 45.75 16.703125 40.8125 
Q 12.359375 35.890625 12.359375 25.921875 
z
" id="ArialMT-111"/>
      <path d="M 40.578125 0 
L 40.578125 7.625 
Q 34.515625 -1.171875 24.125 -1.171875 
Q 19.53125 -1.171875 15.546875 0.578125 
Q 11.578125 2.34375 9.640625 5 
Q 7.71875 7.671875 6.9375 11.53125 
Q 6.390625 14.109375 6.390625 19.734375 
L 6.390625 51.859375 
L 15.1875 51.859375 
L 15.1875 23.09375 
Q 15.1875 16.21875 15.71875 13.8125 
Q 16.546875 10.359375 19.234375 8.375 
Q 21.921875 6.390625 25.875 6.390625 
Q 29.828125 6.390625 33.296875 8.421875 
Q 36.765625 10.453125 38.203125 13.9375 
Q 39.65625 17.4375 39.65625 24.078125 
L 39.65625 51.859375 
L 48.4375 51.859375 
L 48.4375 0 
z
" id="ArialMT-117"/>
      <path d="M 6.59375 0 
L 6.59375 51.859375 
L 14.5 51.859375 
L 14.5 44.484375 
Q 20.21875 53.03125 31 53.03125 
Q 35.6875 53.03125 39.625 51.34375 
Q 43.5625 49.65625 45.515625 46.921875 
Q 47.46875 44.1875 48.25 40.4375 
Q 48.734375 37.984375 48.734375 31.890625 
L 48.734375 0 
L 39.9375 0 
L 39.9375 31.546875 
Q 39.9375 36.921875 38.90625 39.578125 
Q 37.890625 42.234375 35.28125 43.8125 
Q 32.671875 45.40625 29.15625 45.40625 
Q 23.53125 45.40625 19.453125 41.84375 
Q 15.375 38.28125 15.375 28.328125 
L 15.375 0 
z
" id="ArialMT-110"/>
      <path d="M 40.234375 0 
L 40.234375 6.546875 
Q 35.296875 -1.171875 25.734375 -1.171875 
Q 19.53125 -1.171875 14.328125 2.25 
Q 9.125 5.671875 6.265625 11.796875 
Q 3.421875 17.921875 3.421875 25.875 
Q 3.421875 33.640625 6 39.96875 
Q 8.59375 46.296875 13.765625 49.65625 
Q 18.953125 53.03125 25.34375 53.03125 
Q 30.03125 53.03125 33.6875 51.046875 
Q 37.359375 49.078125 39.65625 45.90625 
L 39.65625 71.578125 
L 48.390625 71.578125 
L 48.390625 0 
z
M 12.453125 25.875 
Q 12.453125 15.921875 16.640625 10.984375 
Q 20.84375 6.0625 26.5625 6.0625 
Q 32.328125 6.0625 36.34375 10.765625 
Q 40.375 15.484375 40.375 25.140625 
Q 40.375 35.796875 36.265625 40.765625 
Q 32.171875 45.75 26.171875 45.75 
Q 20.3125 45.75 16.375 40.96875 
Q 12.453125 36.1875 12.453125 25.875 
z
" id="ArialMT-100"/>
     </defs>
     <g transform="translate(118.069675 158.925577)scale(0.08 -0.08)">
      <use xlink:href="#ArialMT-82"/>
      <use x="72.216797" xlink:href="#ArialMT-111"/>
      <use x="127.832031" xlink:href="#ArialMT-117"/>
      <use x="183.447266" xlink:href="#ArialMT-110"/>
      <use x="239.0625" xlink:href="#ArialMT-100"/>
     </g>
    </g>
   </g>
   <g id="matplotlib.axis_2">
    <g id="ytick_1">
     <g id="line2d_7">
      <defs>
       <path d="M 0 0 
L -3.5 0 
" id="ma038502ed4" style="stroke:#000000;stroke-width:0.8;"/>
      </defs>
      <g>
       <use style="stroke:#000000;stroke-width:0.8;" x="49.28375" xlink:href="#ma038502ed4" y="134.883077"/>
      </g>
     </g>
     <g id="text_8">
      <!-- 0 -->
      <g transform="translate(37.835 137.746202)scale(0.08 -0.08)">
       <use xlink:href="#ArialMT-48"/>
      </g>
     </g>
    </g>
    <g id="ytick_2">
     <g id="line2d_8">
      <g>
       <use style="stroke:#000000;stroke-width:0.8;" x="49.28375" xlink:href="#ma038502ed4" y="110.210462"/>
      </g>
     </g>
     <g id="text_9">
      <!-- 2000 -->
      <g transform="translate(24.48875 113.073587)scale(0.08 -0.08)">
       <use xlink:href="#ArialMT-50"/>
       <use x="55.615234" xlink:href="#ArialMT-48"/>
       <use x="111.230469" xlink:href="#ArialMT-48"/>
       <use x="166.845703" xlink:href="#ArialMT-48"/>
      </g>
     </g>
    </g>
    <g id="ytick_3">
     <g id="line2d_9">
      <g>
       <use style="stroke:#000000;stroke-width:0.8;" x="49.28375" xlink:href="#ma038502ed4" y="85.537846"/>
      </g>
     </g>
     <g id="text_10">
      <!-- 4000 -->
      <g transform="translate(24.48875 88.400971)scale(0.08 -0.08)">
       <use xlink:href="#ArialMT-52"/>
       <use x="55.615234" xlink:href="#ArialMT-48"/>
       <use x="111.230469" xlink:href="#ArialMT-48"/>
       <use x="166.845703" xlink:href="#ArialMT-48"/>
      </g>
     </g>
    </g>
    <g id="ytick_4">
     <g id="line2d_10">
      <g>
       <use style="stroke:#000000;stroke-width:0.8;" x="49.28375" xlink:href="#ma038502ed4" y="60.865231"/>
      </g>
     </g>
     <g id="text_11">
      <!-- 6000 -->
      <g transform="translate(24.48875 63.728356)scale(0.08 -0.08)">
       <use xlink:href="#ArialMT-54"/>
       <use x="55.615234" xlink:href="#ArialMT-48"/>
       <use x="111.230469" xlink:href="#ArialMT-48"/>
       <use x="166.845703" xlink:href="#ArialMT-48"/>
      </g>
     </g>
    </g>
    <g id="ytick_5">
     <g id="line2d_11">
      <g>
       <use style="stroke:#000000;stroke-width:0.8;" x="49.28375" xlink:href="#ma038502ed4" y="36.192615"/>
      </g>
     </g>
     <g id="text_12">
      <!-- 8000 -->
      <g transform="translate(24.48875 39.05574)scale(0.08 -0.08)">
       <use xlink:href="#ArialMT-56"/>
       <use x="55.615234" xlink:href="#ArialMT-48"/>
       <use x="111.230469" xlink:href="#ArialMT-48"/>
       <use x="166.845703" xlink:href="#ArialMT-48"/>
      </g>
     </g>
    </g>
    <g id="ytick_6">
     <g id="line2d_12">
      <g>
       <use style="stroke:#000000;stroke-width:0.8;" x="49.28375" xlink:href="#ma038502ed4" y="11.52"/>
      </g>
     </g>
     <g id="text_13">
      <!-- 10000 -->
      <g transform="translate(20.04 14.383125)scale(0.08 -0.08)">
       <use xlink:href="#ArialMT-49"/>
       <use x="55.615234" xlink:href="#ArialMT-48"/>
       <use x="111.230469" xlink:href="#ArialMT-48"/>
       <use x="166.845703" xlink:href="#ArialMT-48"/>
       <use x="222.460938" xlink:href="#ArialMT-48"/>
      </g>
     </g>
    </g>
    <g id="text_14">
     <!-- Optimum -->
     <defs>
      <path d="M 4.828125 34.859375 
Q 4.828125 52.6875 14.390625 62.765625 
Q 23.96875 72.859375 39.109375 72.859375 
Q 49.03125 72.859375 56.984375 68.109375 
Q 64.9375 63.375 69.109375 54.90625 
Q 73.296875 46.4375 73.296875 35.6875 
Q 73.296875 24.8125 68.890625 16.21875 
Q 64.5 7.625 56.4375 3.203125 
Q 48.390625 -1.21875 39.0625 -1.21875 
Q 28.953125 -1.21875 20.984375 3.65625 
Q 13.03125 8.546875 8.921875 16.984375 
Q 4.828125 25.4375 4.828125 34.859375 
z
M 14.59375 34.71875 
Q 14.59375 21.78125 21.546875 14.328125 
Q 28.515625 6.890625 39.015625 6.890625 
Q 49.703125 6.890625 56.609375 14.40625 
Q 63.53125 21.921875 63.53125 35.75 
Q 63.53125 44.484375 60.578125 51 
Q 57.625 57.515625 51.921875 61.109375 
Q 46.234375 64.703125 39.15625 64.703125 
Q 29.109375 64.703125 21.84375 57.78125 
Q 14.59375 50.875 14.59375 34.71875 
z
" id="ArialMT-79"/>
      <path d="M 6.59375 -19.875 
L 6.59375 51.859375 
L 14.59375 51.859375 
L 14.59375 45.125 
Q 17.4375 49.078125 21 51.046875 
Q 24.5625 53.03125 29.640625 53.03125 
Q 36.28125 53.03125 41.359375 49.609375 
Q 46.4375 46.1875 49.015625 39.953125 
Q 51.609375 33.734375 51.609375 26.3125 
Q 51.609375 18.359375 48.75 11.984375 
Q 45.90625 5.609375 40.453125 2.21875 
Q 35.015625 -1.171875 29 -1.171875 
Q 24.609375 -1.171875 21.109375 0.6875 
Q 17.625 2.546875 15.375 5.375 
L 15.375 -19.875 
z
M 14.546875 25.640625 
Q 14.546875 15.625 18.59375 10.84375 
Q 22.65625 6.0625 28.421875 6.0625 
Q 34.28125 6.0625 38.453125 11.015625 
Q 42.625 15.96875 42.625 26.375 
Q 42.625 36.28125 38.546875 41.203125 
Q 34.46875 46.140625 28.8125 46.140625 
Q 23.1875 46.140625 18.859375 40.890625 
Q 14.546875 35.640625 14.546875 25.640625 
z
" id="ArialMT-112"/>
      <path d="M 25.78125 7.859375 
L 27.046875 0.09375 
Q 23.34375 -0.6875 20.40625 -0.6875 
Q 15.625 -0.6875 12.984375 0.828125 
Q 10.359375 2.34375 9.28125 4.8125 
Q 8.203125 7.28125 8.203125 15.1875 
L 8.203125 45.015625 
L 1.765625 45.015625 
L 1.765625 51.859375 
L 8.203125 51.859375 
L 8.203125 64.703125 
L 16.9375 69.96875 
L 16.9375 51.859375 
L 25.78125 51.859375 
L 25.78125 45.015625 
L 16.9375 45.015625 
L 16.9375 14.703125 
Q 16.9375 10.9375 17.40625 9.859375 
Q 17.875 8.796875 18.921875 8.15625 
Q 19.96875 7.515625 21.921875 7.515625 
Q 23.390625 7.515625 25.78125 7.859375 
z
" id="ArialMT-116"/>
      <path d="M 6.640625 61.46875 
L 6.640625 71.578125 
L 15.4375 71.578125 
L 15.4375 61.46875 
z
M 6.640625 0 
L 6.640625 51.859375 
L 15.4375 51.859375 
L 15.4375 0 
z
" id="ArialMT-105"/>
      <path d="M 6.59375 0 
L 6.59375 51.859375 
L 14.453125 51.859375 
L 14.453125 44.578125 
Q 16.890625 48.390625 20.9375 50.703125 
Q 25 53.03125 30.171875 53.03125 
Q 35.9375 53.03125 39.625 50.640625 
Q 43.3125 48.25 44.828125 43.953125 
Q 50.984375 53.03125 60.84375 53.03125 
Q 68.5625 53.03125 72.703125 48.75 
Q 76.859375 44.484375 76.859375 35.59375 
L 76.859375 0 
L 68.109375 0 
L 68.109375 32.671875 
Q 68.109375 37.9375 67.25 40.25 
Q 66.40625 42.578125 64.15625 43.984375 
Q 61.921875 45.40625 58.890625 45.40625 
Q 53.421875 45.40625 49.796875 41.765625 
Q 46.1875 38.140625 46.1875 30.125 
L 46.1875 0 
L 37.40625 0 
L 37.40625 33.6875 
Q 37.40625 39.546875 35.25 42.46875 
Q 33.109375 45.40625 28.21875 45.40625 
Q 24.515625 45.40625 21.359375 43.453125 
Q 18.21875 41.5 16.796875 37.734375 
Q 15.375 33.984375 15.375 26.90625 
L 15.375 0 
z
" id="ArialMT-109"/>
     </defs>
     <g transform="translate(14.45 89.425288)rotate(-90)scale(0.08 -0.08)">
      <use xlink:href="#ArialMT-79"/>
      <use x="77.783203" xlink:href="#ArialMT-112"/>
      <use x="133.398438" xlink:href="#ArialMT-116"/>
      <use x="161.181641" xlink:href="#ArialMT-105"/>
      <use x="183.398438" xlink:href="#ArialMT-109"/>
      <use x="266.699219" xlink:href="#ArialMT-117"/>
      <use x="322.314453" xlink:href="#ArialMT-109"/>
     </g>
    </g>
   </g>
   <g id="line2d_13">
    <path clip-path="url(#p29f864e1b7)" d="M 56.608493 29.021319 
L 58.088239 48.515828 
L 59.567985 66.377273 
L 61.047731 70.88182 
L 62.527478 79.272934 
L 64.007224 83.088174 
L 65.48697 87.769233 
L 66.966716 91.589908 
L 68.446462 102.211944 
L 69.926208 104.413303 
L 71.405954 105.292727 
L 72.8857 112.230472 
L 74.365446 115.737216 
L 75.845192 116.810156 
L 77.324938 119.965957 
L 78.804684 121.559298 
L 80.284431 123.015079 
L 81.764177 124.773325 
L 83.243923 125.710911 
L 84.723669 125.974504 
L 86.203415 126.540808 
L 87.683161 126.540808 
L 89.162907 126.794999 
L 90.642653 127.715944 
L 92.122399 127.778102 
L 93.602145 127.778102 
L 95.081891 127.969157 
L 96.561638 128.326903 
L 98.041384 130.004909 
L 99.52113 130.004909 
L 101.000876 131.538625 
L 102.480622 131.538625 
L 103.960368 131.645847 
L 105.440114 133.365388 
L 106.91986 133.365388 
L 108.399606 133.87719 
L 109.879352 134.355903 
L 111.359098 134.355903 
L 112.838845 134.834126 
L 114.318591 135.421387 
L 115.798337 136.908118 
L 117.278083 137.179543 
L 118.757829 138.188522 
L 120.237575 138.188522 
L 121.717321 138.460972 
L 123.197067 139.047989 
L 124.676813 139.547904 
L 126.156559 139.829749 
L 127.636305 140.231493 
L 129.116052 140.231493 
L 130.595798 140.231493 
L 132.075544 140.231493 
L 133.55529 140.231493 
L 135.035036 140.231493 
L 136.514782 140.950461 
L 137.994528 141.040569 
L 139.474274 141.040569 
L 140.95402 141.231799 
L 142.433766 141.293266 
L 143.913512 141.43976 
L 145.393259 141.43976 
L 146.873005 141.43976 
L 148.352751 141.43976 
L 149.832497 141.43976 
L 151.312243 141.43976 
L 152.791989 141.769717 
L 154.271735 141.965287 
L 155.751481 142.248585 
L 157.231227 142.248585 
L 158.710973 142.505784 
L 160.190719 142.505784 
L 161.670466 142.505784 
L 163.150212 142.505784 
L 164.629958 142.778679 
L 166.109704 143.512426 
L 167.58945 143.512426 
L 169.069196 143.512426 
L 170.548942 143.512426 
L 172.028688 143.512426 
L 173.508434 144.064517 
L 174.98818 144.172038 
L 176.467926 144.172038 
L 177.947673 144.468608 
L 179.427419 144.556157 
L 180.907165 144.556157 
L 182.386911 144.556157 
L 183.866657 144.556157 
L 185.346403 144.556157 
L 186.826149 144.556157 
L 188.305895 144.556157 
L 189.785641 144.826513 
L 191.265387 144.826513 
L 192.745133 144.826513 
L 194.224879 144.826513 
L 195.704626 144.971343 
L 197.184372 144.971343 
L 198.664118 144.971343 
L 200.143864 145.11702 
L 201.62361 145.127585 
L 203.103356 145.127585 
" style="fill:none;stroke:#1f77b4;stroke-linecap:square;stroke-width:1.5;"/>
   </g>
   <g id="patch_3">
    <path d="M 49.28375 134.883077 
L 49.28375 11.52 
" style="fill:none;stroke:#000000;stroke-linecap:square;stroke-linejoin:miter;stroke-width:0.8;"/>
   </g>
   <g id="patch_4">
    <path d="M 210.428099 134.883077 
L 210.428099 11.52 
" style="fill:none;stroke:#000000;stroke-linecap:square;stroke-linejoin:miter;stroke-width:0.8;"/>
   </g>
   <g id="patch_5">
    <path d="M 49.28375 134.883077 
L 210.428099 134.883077 
" style="fill:none;stroke:#000000;stroke-linecap:square;stroke-linejoin:miter;stroke-width:0.8;"/>
   </g>
   <g id="patch_6">
    <path d="M 49.28375 11.52 
L 210.428099 11.52 
" style="fill:none;stroke:#000000;stroke-linecap:square;stroke-linejoin:miter;stroke-width:0.8;"/>
   </g>
  </g>
 </g>
 <defs>
  <clipPath id="p29f864e1b7">
   <rect height="123.363077" width="161.144349" x="49.28375" y="11.52"/>
  </clipPath>
 </defs>
</svg>
