<?xml version="1.0" encoding="utf-8" standalone="no"?>
<!DOCTYPE svg PUBLIC "-//W3C//DTD SVG 1.1//EN"
  "http://www.w3.org/Graphics/SVG/1.1/DTD/svg11.dtd">
<!-- Created with matplotlib (https://matplotlib.org/) -->
<svg height="168.923077pt" version="1.1" viewBox="0 0 219.6 168.923077" width="219.6pt" xmlns="http://www.w3.org/2000/svg" xmlns:xlink="http://www.w3.org/1999/xlink">
 <defs>
  <style type="text/css">
*{stroke-linecap:butt;stroke-linejoin:round;}
  </style>
 </defs>
 <g id="figure_1">
  <g id="patch_1">
   <path d="M 0 168.923077 
L 219.6 168.923077 
L 219.6 0 
L 0 0 
z
" style="fill:none;"/>
  </g>
  <g id="axes_1">
   <g id="patch_2">
    <path d="M 38.12375 134.883077 
L 210.428099 134.883077 
L 210.428099 11.52 
L 38.12375 11.52 
z
" style="fill:none;"/>
   </g>
   <g id="PolyCollection_1">
    <defs>
     <path d="M 45.955766 -119.784912 
L 45.955766 -103.1219 
L 47.537991 -100.740533 
L 49.120217 -98.082846 
L 50.702442 -92.467885 
L 52.284668 -89.912274 
L 53.866893 -86.650441 
L 55.449118 -80.854937 
L 57.031344 -78.288844 
L 58.613569 -78.815466 
L 60.195795 -75.849036 
L 61.77802 -75.353796 
L 63.360246 -73.681373 
L 64.942471 -72.660446 
L 66.524696 -72.02502 
L 68.106922 -70.621645 
L 69.689147 -70.653857 
L 71.271373 -71.317866 
L 72.853598 -71.411734 
L 74.435824 -68.781557 
L 76.018049 -68.810474 
L 77.600274 -62.744336 
L 79.1825 -62.024056 
L 80.764725 -62.202584 
L 82.346951 -62.087595 
L 83.929176 -60.619379 
L 85.511402 -60.302666 
L 87.093627 -60.622472 
L 88.675852 -58.702339 
L 90.258078 -59.331241 
L 91.840303 -59.585786 
L 93.422529 -57.948322 
L 95.004754 -59.001341 
L 96.58698 -58.089056 
L 98.169205 -59.24968 
L 99.75143 -58.425887 
L 101.333656 -58.195498 
L 102.915881 -58.43399 
L 104.498107 -58.330141 
L 106.080332 -57.716091 
L 107.662558 -57.799553 
L 109.244783 -57.690149 
L 110.827008 -58.075206 
L 112.409234 -56.798538 
L 113.991459 -54.62389 
L 115.573685 -54.247805 
L 117.15591 -53.420613 
L 118.738136 -53.39666 
L 120.320361 -52.525377 
L 121.902586 -50.195649 
L 123.484812 -50.008465 
L 125.067037 -49.534045 
L 126.649263 -49.310738 
L 128.231488 -49.677551 
L 129.813714 -49.762632 
L 131.395939 -49.702797 
L 132.978164 -48.554031 
L 134.56039 -48.950472 
L 136.142615 -48.156318 
L 137.724841 -48.33193 
L 139.307066 -48.01703 
L 140.889292 -48.446366 
L 142.471517 -47.673038 
L 144.053742 -48.154003 
L 145.635968 -47.785809 
L 147.218193 -48.504846 
L 148.800419 -47.217457 
L 150.382644 -47.307611 
L 151.96487 -47.107032 
L 153.547095 -46.880418 
L 155.12932 -47.253387 
L 156.711546 -46.790481 
L 158.293771 -46.627885 
L 159.875997 -46.981712 
L 161.458222 -47.271902 
L 163.040448 -46.77204 
L 164.622673 -46.731796 
L 166.204898 -46.851153 
L 167.787124 -46.629401 
L 169.369349 -47.235365 
L 170.951575 -46.397687 
L 172.5338 -46.423289 
L 174.116026 -46.06192 
L 175.698251 -46.175595 
L 177.280476 -46.879245 
L 178.862702 -46.361782 
L 180.444927 -45.990372 
L 182.027153 -46.144223 
L 183.609378 -46.04498 
L 185.191604 -45.998075 
L 186.773829 -46.133956 
L 188.356054 -46.148367 
L 189.93828 -45.482251 
L 191.520505 -45.825552 
L 193.102731 -46.150078 
L 194.684956 -45.944856 
L 196.267182 -45.689703 
L 197.849407 -46.039502 
L 199.431632 -45.841014 
L 201.013858 -46.126202 
L 202.596083 -45.573861 
L 202.596083 -59.235569 
L 202.596083 -59.235569 
L 201.013858 -60.145801 
L 199.431632 -59.893945 
L 197.849407 -59.364169 
L 196.267182 -59.50189 
L 194.684956 -59.896488 
L 193.102731 -59.097463 
L 191.520505 -59.379307 
L 189.93828 -59.283871 
L 188.356054 -59.730744 
L 186.773829 -59.402727 
L 185.191604 -59.747308 
L 183.609378 -59.680734 
L 182.027153 -59.902467 
L 180.444927 -59.222083 
L 178.862702 -59.451812 
L 177.280476 -61.017628 
L 175.698251 -60.00525 
L 174.116026 -59.995154 
L 172.5338 -59.972299 
L 170.951575 -60.570149 
L 169.369349 -60.364836 
L 167.787124 -59.812416 
L 166.204898 -59.620336 
L 164.622673 -60.066321 
L 163.040448 -60.877699 
L 161.458222 -61.732377 
L 159.875997 -61.38006 
L 158.293771 -61.406818 
L 156.711546 -61.161836 
L 155.12932 -61.288577 
L 153.547095 -60.767263 
L 151.96487 -61.703434 
L 150.382644 -61.855927 
L 148.800419 -61.713642 
L 147.218193 -62.623281 
L 145.635968 -62.16004 
L 144.053742 -63.865422 
L 142.471517 -63.468383 
L 140.889292 -63.716499 
L 139.307066 -62.975513 
L 137.724841 -63.471066 
L 136.142615 -63.54192 
L 134.56039 -63.744403 
L 132.978164 -63.661568 
L 131.395939 -64.89746 
L 129.813714 -64.696113 
L 128.231488 -64.878086 
L 126.649263 -64.850245 
L 125.067037 -65.061332 
L 123.484812 -65.225548 
L 121.902586 -65.597721 
L 120.320361 -68.118232 
L 118.738136 -69.516903 
L 117.15591 -69.795901 
L 115.573685 -72.13824 
L 113.991459 -72.042284 
L 112.409234 -77.117603 
L 110.827008 -78.757213 
L 109.244783 -78.649101 
L 107.662558 -78.153831 
L 106.080332 -78.472052 
L 104.498107 -78.492738 
L 102.915881 -77.802345 
L 101.333656 -78.375452 
L 99.75143 -78.418626 
L 98.169205 -79.021998 
L 96.58698 -79.050498 
L 95.004754 -78.302336 
L 93.422529 -79.206795 
L 91.840303 -79.491304 
L 90.258078 -79.921739 
L 88.675852 -78.863229 
L 87.093627 -79.645462 
L 85.511402 -80.272993 
L 83.929176 -80.705701 
L 82.346951 -84.719056 
L 80.764725 -84.544535 
L 79.1825 -85.585779 
L 77.600274 -85.956044 
L 76.018049 -94.637174 
L 74.435824 -94.448308 
L 72.853598 -96.802104 
L 71.271373 -97.899697 
L 69.689147 -95.778744 
L 68.106922 -95.537431 
L 66.524696 -96.490163 
L 64.942471 -96.579472 
L 63.360246 -98.498895 
L 61.77802 -99.697415 
L 60.195795 -99.674382 
L 58.613569 -102.925202 
L 57.031344 -101.29633 
L 55.449118 -103.182489 
L 53.866893 -109.693941 
L 52.284668 -111.92036 
L 50.702442 -114.600862 
L 49.120217 -118.436692 
L 47.537991 -118.360782 
L 45.955766 -119.784912 
z
" id="mc88be88a7e" style="stroke:#ff7f0e;stroke-opacity:0.2;"/>
    </defs>
    <g clip-path="url(#p26d0a86662)">
     <use style="fill:#ff7f0e;fill-opacity:0.2;stroke:#ff7f0e;stroke-opacity:0.2;" x="0" xlink:href="#mc88be88a7e" y="168.923077"/>
    </g>
   </g>
   <g id="matplotlib.axis_1">
    <g id="xtick_1">
     <g id="line2d_1">
      <defs>
       <path d="M 0 0 
L 0 3.5 
" id="m434e103ee6" style="stroke:#000000;stroke-width:0.8;"/>
      </defs>
      <g>
       <use style="stroke:#000000;stroke-width:0.8;" x="45.955766" xlink:href="#m434e103ee6" y="134.883077"/>
      </g>
     </g>
     <g id="text_1">
      <!-- 0 -->
      <defs>
       <path d="M 4.15625 35.296875 
Q 4.15625 48 6.765625 55.734375 
Q 9.375 63.484375 14.515625 67.671875 
Q 19.671875 71.875 27.484375 71.875 
Q 33.25 71.875 37.59375 69.546875 
Q 41.9375 67.234375 44.765625 62.859375 
Q 47.609375 58.5 49.21875 52.21875 
Q 50.828125 45.953125 50.828125 35.296875 
Q 50.828125 22.703125 48.234375 14.96875 
Q 45.65625 7.234375 40.5 3 
Q 35.359375 -1.21875 27.484375 -1.21875 
Q 17.140625 -1.21875 11.234375 6.203125 
Q 4.15625 15.140625 4.15625 35.296875 
z
M 13.1875 35.296875 
Q 13.1875 17.671875 17.3125 11.828125 
Q 21.4375 6 27.484375 6 
Q 33.546875 6 37.671875 11.859375 
Q 41.796875 17.71875 41.796875 35.296875 
Q 41.796875 52.984375 37.671875 58.78125 
Q 33.546875 64.59375 27.390625 64.59375 
Q 21.34375 64.59375 17.71875 59.46875 
Q 13.1875 52.9375 13.1875 35.296875 
z
" id="ArialMT-48"/>
      </defs>
      <g transform="translate(43.731391 147.609327)scale(0.08 -0.08)">
       <use xlink:href="#ArialMT-48"/>
      </g>
     </g>
    </g>
    <g id="xtick_2">
     <g id="line2d_2">
      <g>
       <use style="stroke:#000000;stroke-width:0.8;" x="77.600274" xlink:href="#m434e103ee6" y="134.883077"/>
      </g>
     </g>
     <g id="text_2">
      <!-- 20 -->
      <defs>
       <path d="M 50.34375 8.453125 
L 50.34375 0 
L 3.03125 0 
Q 2.9375 3.171875 4.046875 6.109375 
Q 5.859375 10.9375 9.828125 15.625 
Q 13.8125 20.3125 21.34375 26.46875 
Q 33.015625 36.03125 37.109375 41.625 
Q 41.21875 47.21875 41.21875 52.203125 
Q 41.21875 57.421875 37.46875 61 
Q 33.734375 64.59375 27.734375 64.59375 
Q 21.390625 64.59375 17.578125 60.78125 
Q 13.765625 56.984375 13.71875 50.25 
L 4.6875 51.171875 
Q 5.609375 61.28125 11.65625 66.578125 
Q 17.71875 71.875 27.9375 71.875 
Q 38.234375 71.875 44.234375 66.15625 
Q 50.25 60.453125 50.25 52 
Q 50.25 47.703125 48.484375 43.546875 
Q 46.734375 39.40625 42.65625 34.8125 
Q 38.578125 30.21875 29.109375 22.21875 
Q 21.1875 15.578125 18.9375 13.203125 
Q 16.703125 10.84375 15.234375 8.453125 
z
" id="ArialMT-50"/>
      </defs>
      <g transform="translate(73.151524 147.609327)scale(0.08 -0.08)">
       <use xlink:href="#ArialMT-50"/>
       <use x="55.615234" xlink:href="#ArialMT-48"/>
      </g>
     </g>
    </g>
    <g id="xtick_3">
     <g id="line2d_3">
      <g>
       <use style="stroke:#000000;stroke-width:0.8;" x="109.244783" xlink:href="#m434e103ee6" y="134.883077"/>
      </g>
     </g>
     <g id="text_3">
      <!-- 40 -->
      <defs>
       <path d="M 32.328125 0 
L 32.328125 17.140625 
L 1.265625 17.140625 
L 1.265625 25.203125 
L 33.9375 71.578125 
L 41.109375 71.578125 
L 41.109375 25.203125 
L 50.78125 25.203125 
L 50.78125 17.140625 
L 41.109375 17.140625 
L 41.109375 0 
z
M 32.328125 25.203125 
L 32.328125 57.46875 
L 9.90625 25.203125 
z
" id="ArialMT-52"/>
      </defs>
      <g transform="translate(104.796033 147.609327)scale(0.08 -0.08)">
       <use xlink:href="#ArialMT-52"/>
       <use x="55.615234" xlink:href="#ArialMT-48"/>
      </g>
     </g>
    </g>
    <g id="xtick_4">
     <g id="line2d_4">
      <g>
       <use style="stroke:#000000;stroke-width:0.8;" x="140.889292" xlink:href="#m434e103ee6" y="134.883077"/>
      </g>
     </g>
     <g id="text_4">
      <!-- 60 -->
      <defs>
       <path d="M 49.75 54.046875 
L 41.015625 53.375 
Q 39.84375 58.546875 37.703125 60.890625 
Q 34.125 64.65625 28.90625 64.65625 
Q 24.703125 64.65625 21.53125 62.3125 
Q 17.390625 59.28125 14.984375 53.46875 
Q 12.59375 47.65625 12.5 36.921875 
Q 15.671875 41.75 20.265625 44.09375 
Q 24.859375 46.4375 29.890625 46.4375 
Q 38.671875 46.4375 44.84375 39.96875 
Q 51.03125 33.5 51.03125 23.25 
Q 51.03125 16.5 48.125 10.71875 
Q 45.21875 4.9375 40.140625 1.859375 
Q 35.0625 -1.21875 28.609375 -1.21875 
Q 17.625 -1.21875 10.6875 6.859375 
Q 3.765625 14.9375 3.765625 33.5 
Q 3.765625 54.25 11.421875 63.671875 
Q 18.109375 71.875 29.4375 71.875 
Q 37.890625 71.875 43.28125 67.140625 
Q 48.6875 62.40625 49.75 54.046875 
z
M 13.875 23.1875 
Q 13.875 18.65625 15.796875 14.5 
Q 17.71875 10.359375 21.1875 8.171875 
Q 24.65625 6 28.46875 6 
Q 34.03125 6 38.03125 10.484375 
Q 42.046875 14.984375 42.046875 22.703125 
Q 42.046875 30.125 38.078125 34.390625 
Q 34.125 38.671875 28.125 38.671875 
Q 22.171875 38.671875 18.015625 34.390625 
Q 13.875 30.125 13.875 23.1875 
z
" id="ArialMT-54"/>
      </defs>
      <g transform="translate(136.440542 147.609327)scale(0.08 -0.08)">
       <use xlink:href="#ArialMT-54"/>
       <use x="55.615234" xlink:href="#ArialMT-48"/>
      </g>
     </g>
    </g>
    <g id="xtick_5">
     <g id="line2d_5">
      <g>
       <use style="stroke:#000000;stroke-width:0.8;" x="172.5338" xlink:href="#m434e103ee6" y="134.883077"/>
      </g>
     </g>
     <g id="text_5">
      <!-- 80 -->
      <defs>
       <path d="M 17.671875 38.8125 
Q 12.203125 40.828125 9.5625 44.53125 
Q 6.9375 48.25 6.9375 53.421875 
Q 6.9375 61.234375 12.546875 66.546875 
Q 18.171875 71.875 27.484375 71.875 
Q 36.859375 71.875 42.578125 66.421875 
Q 48.296875 60.984375 48.296875 53.171875 
Q 48.296875 48.1875 45.671875 44.5 
Q 43.0625 40.828125 37.75 38.8125 
Q 44.34375 36.671875 47.78125 31.875 
Q 51.21875 27.09375 51.21875 20.453125 
Q 51.21875 11.28125 44.71875 5.03125 
Q 38.234375 -1.21875 27.640625 -1.21875 
Q 17.046875 -1.21875 10.546875 5.046875 
Q 4.046875 11.328125 4.046875 20.703125 
Q 4.046875 27.6875 7.59375 32.390625 
Q 11.140625 37.109375 17.671875 38.8125 
z
M 15.921875 53.71875 
Q 15.921875 48.640625 19.1875 45.40625 
Q 22.46875 42.1875 27.6875 42.1875 
Q 32.765625 42.1875 36.015625 45.375 
Q 39.265625 48.578125 39.265625 53.21875 
Q 39.265625 58.0625 35.90625 61.359375 
Q 32.5625 64.65625 27.59375 64.65625 
Q 22.5625 64.65625 19.234375 61.421875 
Q 15.921875 58.203125 15.921875 53.71875 
z
M 13.09375 20.65625 
Q 13.09375 16.890625 14.875 13.375 
Q 16.65625 9.859375 20.171875 7.921875 
Q 23.6875 6 27.734375 6 
Q 34.03125 6 38.125 10.046875 
Q 42.234375 14.109375 42.234375 20.359375 
Q 42.234375 26.703125 38.015625 30.859375 
Q 33.796875 35.015625 27.4375 35.015625 
Q 21.234375 35.015625 17.15625 30.90625 
Q 13.09375 26.8125 13.09375 20.65625 
z
" id="ArialMT-56"/>
      </defs>
      <g transform="translate(168.08505 147.609327)scale(0.08 -0.08)">
       <use xlink:href="#ArialMT-56"/>
       <use x="55.615234" xlink:href="#ArialMT-48"/>
      </g>
     </g>
    </g>
    <g id="xtick_6">
     <g id="line2d_6">
      <g>
       <use style="stroke:#000000;stroke-width:0.8;" x="204.178309" xlink:href="#m434e103ee6" y="134.883077"/>
      </g>
     </g>
     <g id="text_6">
      <!-- 100 -->
      <defs>
       <path d="M 37.25 0 
L 28.46875 0 
L 28.46875 56 
Q 25.296875 52.984375 20.140625 49.953125 
Q 14.984375 46.921875 10.890625 45.40625 
L 10.890625 53.90625 
Q 18.265625 57.375 23.78125 62.296875 
Q 29.296875 67.234375 31.59375 71.875 
L 37.25 71.875 
z
" id="ArialMT-49"/>
      </defs>
      <g transform="translate(197.505184 147.609327)scale(0.08 -0.08)">
       <use xlink:href="#ArialMT-49"/>
       <use x="55.615234" xlink:href="#ArialMT-48"/>
       <use x="111.230469" xlink:href="#ArialMT-48"/>
      </g>
     </g>
    </g>
    <g id="text_7">
     <!-- Round -->
     <defs>
      <path d="M 7.859375 0 
L 7.859375 71.578125 
L 39.59375 71.578125 
Q 49.171875 71.578125 54.140625 69.640625 
Q 59.125 67.71875 62.109375 62.828125 
Q 65.09375 57.953125 65.09375 52.046875 
Q 65.09375 44.4375 60.15625 39.203125 
Q 55.21875 33.984375 44.921875 32.5625 
Q 48.6875 30.765625 50.640625 29 
Q 54.78125 25.203125 58.5 19.484375 
L 70.953125 0 
L 59.03125 0 
L 49.5625 14.890625 
Q 45.40625 21.34375 42.71875 24.75 
Q 40.046875 28.171875 37.921875 29.53125 
Q 35.796875 30.90625 33.59375 31.453125 
Q 31.984375 31.78125 28.328125 31.78125 
L 17.328125 31.78125 
L 17.328125 0 
z
M 17.328125 39.984375 
L 37.703125 39.984375 
Q 44.1875 39.984375 47.84375 41.328125 
Q 51.515625 42.671875 53.421875 45.625 
Q 55.328125 48.578125 55.328125 52.046875 
Q 55.328125 57.125 51.640625 60.390625 
Q 47.953125 63.671875 39.984375 63.671875 
L 17.328125 63.671875 
z
" id="ArialMT-82"/>
      <path d="M 3.328125 25.921875 
Q 3.328125 40.328125 11.328125 47.265625 
Q 18.015625 53.03125 27.640625 53.03125 
Q 38.328125 53.03125 45.109375 46.015625 
Q 51.90625 39.015625 51.90625 26.65625 
Q 51.90625 16.65625 48.90625 10.90625 
Q 45.90625 5.171875 40.15625 2 
Q 34.421875 -1.171875 27.640625 -1.171875 
Q 16.75 -1.171875 10.03125 5.8125 
Q 3.328125 12.796875 3.328125 25.921875 
z
M 12.359375 25.921875 
Q 12.359375 15.96875 16.703125 11.015625 
Q 21.046875 6.0625 27.640625 6.0625 
Q 34.1875 6.0625 38.53125 11.03125 
Q 42.875 16.015625 42.875 26.21875 
Q 42.875 35.84375 38.5 40.796875 
Q 34.125 45.75 27.640625 45.75 
Q 21.046875 45.75 16.703125 40.8125 
Q 12.359375 35.890625 12.359375 25.921875 
z
" id="ArialMT-111"/>
      <path d="M 40.578125 0 
L 40.578125 7.625 
Q 34.515625 -1.171875 24.125 -1.171875 
Q 19.53125 -1.171875 15.546875 0.578125 
Q 11.578125 2.34375 9.640625 5 
Q 7.71875 7.671875 6.9375 11.53125 
Q 6.390625 14.109375 6.390625 19.734375 
L 6.390625 51.859375 
L 15.1875 51.859375 
L 15.1875 23.09375 
Q 15.1875 16.21875 15.71875 13.8125 
Q 16.546875 10.359375 19.234375 8.375 
Q 21.921875 6.390625 25.875 6.390625 
Q 29.828125 6.390625 33.296875 8.421875 
Q 36.765625 10.453125 38.203125 13.9375 
Q 39.65625 17.4375 39.65625 24.078125 
L 39.65625 51.859375 
L 48.4375 51.859375 
L 48.4375 0 
z
" id="ArialMT-117"/>
      <path d="M 6.59375 0 
L 6.59375 51.859375 
L 14.5 51.859375 
L 14.5 44.484375 
Q 20.21875 53.03125 31 53.03125 
Q 35.6875 53.03125 39.625 51.34375 
Q 43.5625 49.65625 45.515625 46.921875 
Q 47.46875 44.1875 48.25 40.4375 
Q 48.734375 37.984375 48.734375 31.890625 
L 48.734375 0 
L 39.9375 0 
L 39.9375 31.546875 
Q 39.9375 36.921875 38.90625 39.578125 
Q 37.890625 42.234375 35.28125 43.8125 
Q 32.671875 45.40625 29.15625 45.40625 
Q 23.53125 45.40625 19.453125 41.84375 
Q 15.375 38.28125 15.375 28.328125 
L 15.375 0 
z
" id="ArialMT-110"/>
      <path d="M 40.234375 0 
L 40.234375 6.546875 
Q 35.296875 -1.171875 25.734375 -1.171875 
Q 19.53125 -1.171875 14.328125 2.25 
Q 9.125 5.671875 6.265625 11.796875 
Q 3.421875 17.921875 3.421875 25.875 
Q 3.421875 33.640625 6 39.96875 
Q 8.59375 46.296875 13.765625 49.65625 
Q 18.953125 53.03125 25.34375 53.03125 
Q 30.03125 53.03125 33.6875 51.046875 
Q 37.359375 49.078125 39.65625 45.90625 
L 39.65625 71.578125 
L 48.390625 71.578125 
L 48.390625 0 
z
M 12.453125 25.875 
Q 12.453125 15.921875 16.640625 10.984375 
Q 20.84375 6.0625 26.5625 6.0625 
Q 32.328125 6.0625 36.34375 10.765625 
Q 40.375 15.484375 40.375 25.140625 
Q 40.375 35.796875 36.265625 40.765625 
Q 32.171875 45.75 26.171875 45.75 
Q 20.3125 45.75 16.375 40.96875 
Q 12.453125 36.1875 12.453125 25.875 
z
" id="ArialMT-100"/>
     </defs>
     <g transform="translate(112.489675 158.925577)scale(0.08 -0.08)">
      <use xlink:href="#ArialMT-82"/>
      <use x="72.216797" xlink:href="#ArialMT-111"/>
      <use x="127.832031" xlink:href="#ArialMT-117"/>
      <use x="183.447266" xlink:href="#ArialMT-110"/>
      <use x="239.0625" xlink:href="#ArialMT-100"/>
     </g>
    </g>
   </g>
   <g id="matplotlib.axis_2">
    <g id="ytick_1">
     <g id="line2d_7">
      <defs>
       <path d="M 0 0 
L -3.5 0 
" id="m79d00e830c" style="stroke:#000000;stroke-width:0.8;"/>
      </defs>
      <g>
       <use style="stroke:#000000;stroke-width:0.8;" x="38.12375" xlink:href="#m79d00e830c" y="134.883077"/>
      </g>
     </g>
     <g id="text_8">
      <!-- 0.0 -->
      <defs>
       <path d="M 9.078125 0 
L 9.078125 10.015625 
L 19.09375 10.015625 
L 19.09375 0 
z
" id="ArialMT-46"/>
      </defs>
      <g transform="translate(20.00375 137.746202)scale(0.08 -0.08)">
       <use xlink:href="#ArialMT-48"/>
       <use x="55.615234" xlink:href="#ArialMT-46"/>
       <use x="83.398438" xlink:href="#ArialMT-48"/>
      </g>
     </g>
    </g>
    <g id="ytick_2">
     <g id="line2d_8">
      <g>
       <use style="stroke:#000000;stroke-width:0.8;" x="38.12375" xlink:href="#m79d00e830c" y="110.210462"/>
      </g>
     </g>
     <g id="text_9">
      <!-- 0.2 -->
      <g transform="translate(20.00375 113.073587)scale(0.08 -0.08)">
       <use xlink:href="#ArialMT-48"/>
       <use x="55.615234" xlink:href="#ArialMT-46"/>
       <use x="83.398438" xlink:href="#ArialMT-50"/>
      </g>
     </g>
    </g>
    <g id="ytick_3">
     <g id="line2d_9">
      <g>
       <use style="stroke:#000000;stroke-width:0.8;" x="38.12375" xlink:href="#m79d00e830c" y="85.537846"/>
      </g>
     </g>
     <g id="text_10">
      <!-- 0.4 -->
      <g transform="translate(20.00375 88.400971)scale(0.08 -0.08)">
       <use xlink:href="#ArialMT-48"/>
       <use x="55.615234" xlink:href="#ArialMT-46"/>
       <use x="83.398438" xlink:href="#ArialMT-52"/>
      </g>
     </g>
    </g>
    <g id="ytick_4">
     <g id="line2d_10">
      <g>
       <use style="stroke:#000000;stroke-width:0.8;" x="38.12375" xlink:href="#m79d00e830c" y="60.865231"/>
      </g>
     </g>
     <g id="text_11">
      <!-- 0.6 -->
      <g transform="translate(20.00375 63.728356)scale(0.08 -0.08)">
       <use xlink:href="#ArialMT-48"/>
       <use x="55.615234" xlink:href="#ArialMT-46"/>
       <use x="83.398438" xlink:href="#ArialMT-54"/>
      </g>
     </g>
    </g>
    <g id="ytick_5">
     <g id="line2d_11">
      <g>
       <use style="stroke:#000000;stroke-width:0.8;" x="38.12375" xlink:href="#m79d00e830c" y="36.192615"/>
      </g>
     </g>
     <g id="text_12">
      <!-- 0.8 -->
      <g transform="translate(20.00375 39.05574)scale(0.08 -0.08)">
       <use xlink:href="#ArialMT-48"/>
       <use x="55.615234" xlink:href="#ArialMT-46"/>
       <use x="83.398438" xlink:href="#ArialMT-56"/>
      </g>
     </g>
    </g>
    <g id="ytick_6">
     <g id="line2d_12">
      <g>
       <use style="stroke:#000000;stroke-width:0.8;" x="38.12375" xlink:href="#m79d00e830c" y="11.52"/>
      </g>
     </g>
     <g id="text_13">
      <!-- 1.0 -->
      <g transform="translate(20.00375 14.383125)scale(0.08 -0.08)">
       <use xlink:href="#ArialMT-49"/>
       <use x="55.615234" xlink:href="#ArialMT-46"/>
       <use x="83.398438" xlink:href="#ArialMT-48"/>
      </g>
     </g>
    </g>
    <g id="text_14">
     <!-- Regret -->
     <defs>
      <path d="M 42.09375 16.703125 
L 51.171875 15.578125 
Q 49.03125 7.625 43.21875 3.21875 
Q 37.40625 -1.171875 28.375 -1.171875 
Q 17 -1.171875 10.328125 5.828125 
Q 3.65625 12.84375 3.65625 25.484375 
Q 3.65625 38.578125 10.390625 45.796875 
Q 17.140625 53.03125 27.875 53.03125 
Q 38.28125 53.03125 44.875 45.953125 
Q 51.46875 38.875 51.46875 26.03125 
Q 51.46875 25.25 51.421875 23.6875 
L 12.75 23.6875 
Q 13.234375 15.140625 17.578125 10.59375 
Q 21.921875 6.0625 28.421875 6.0625 
Q 33.25 6.0625 36.671875 8.59375 
Q 40.09375 11.140625 42.09375 16.703125 
z
M 13.234375 30.90625 
L 42.1875 30.90625 
Q 41.609375 37.453125 38.875 40.71875 
Q 34.671875 45.796875 27.984375 45.796875 
Q 21.921875 45.796875 17.796875 41.75 
Q 13.671875 37.703125 13.234375 30.90625 
z
" id="ArialMT-101"/>
      <path d="M 4.984375 -4.296875 
L 13.53125 -5.5625 
Q 14.0625 -9.515625 16.5 -11.328125 
Q 19.78125 -13.765625 25.4375 -13.765625 
Q 31.546875 -13.765625 34.859375 -11.328125 
Q 38.1875 -8.890625 39.359375 -4.5 
Q 40.046875 -1.8125 39.984375 6.78125 
Q 34.234375 0 25.640625 0 
Q 14.9375 0 9.078125 7.71875 
Q 3.21875 15.4375 3.21875 26.21875 
Q 3.21875 33.640625 5.90625 39.90625 
Q 8.59375 46.1875 13.6875 49.609375 
Q 18.796875 53.03125 25.6875 53.03125 
Q 34.859375 53.03125 40.828125 45.609375 
L 40.828125 51.859375 
L 48.921875 51.859375 
L 48.921875 7.03125 
Q 48.921875 -5.078125 46.453125 -10.125 
Q 44 -15.1875 38.640625 -18.109375 
Q 33.296875 -21.046875 25.484375 -21.046875 
Q 16.21875 -21.046875 10.5 -16.875 
Q 4.78125 -12.703125 4.984375 -4.296875 
z
M 12.25 26.859375 
Q 12.25 16.65625 16.296875 11.96875 
Q 20.359375 7.28125 26.46875 7.28125 
Q 32.515625 7.28125 36.609375 11.9375 
Q 40.71875 16.609375 40.71875 26.5625 
Q 40.71875 36.078125 36.5 40.90625 
Q 32.28125 45.75 26.3125 45.75 
Q 20.453125 45.75 16.34375 40.984375 
Q 12.25 36.234375 12.25 26.859375 
z
" id="ArialMT-103"/>
      <path d="M 6.5 0 
L 6.5 51.859375 
L 14.40625 51.859375 
L 14.40625 44 
Q 17.4375 49.515625 20 51.265625 
Q 22.5625 53.03125 25.640625 53.03125 
Q 30.078125 53.03125 34.671875 50.203125 
L 31.640625 42.046875 
Q 28.421875 43.953125 25.203125 43.953125 
Q 22.3125 43.953125 20.015625 42.21875 
Q 17.71875 40.484375 16.75 37.40625 
Q 15.28125 32.71875 15.28125 27.15625 
L 15.28125 0 
z
" id="ArialMT-114"/>
      <path d="M 25.78125 7.859375 
L 27.046875 0.09375 
Q 23.34375 -0.6875 20.40625 -0.6875 
Q 15.625 -0.6875 12.984375 0.828125 
Q 10.359375 2.34375 9.28125 4.8125 
Q 8.203125 7.28125 8.203125 15.1875 
L 8.203125 45.015625 
L 1.765625 45.015625 
L 1.765625 51.859375 
L 8.203125 51.859375 
L 8.203125 64.703125 
L 16.9375 69.96875 
L 16.9375 51.859375 
L 25.78125 51.859375 
L 25.78125 45.015625 
L 16.9375 45.015625 
L 16.9375 14.703125 
Q 16.9375 10.9375 17.40625 9.859375 
Q 17.875 8.796875 18.921875 8.15625 
Q 19.96875 7.515625 21.921875 7.515625 
Q 23.390625 7.515625 25.78125 7.859375 
z
" id="ArialMT-116"/>
     </defs>
     <g transform="translate(14.32 85.206538)rotate(-90)scale(0.08 -0.08)">
      <use xlink:href="#ArialMT-82"/>
      <use x="72.216797" xlink:href="#ArialMT-101"/>
      <use x="127.832031" xlink:href="#ArialMT-103"/>
      <use x="183.447266" xlink:href="#ArialMT-114"/>
      <use x="216.748047" xlink:href="#ArialMT-101"/>
      <use x="272.363281" xlink:href="#ArialMT-116"/>
     </g>
    </g>
   </g>
   <g id="line2d_13">
    <path clip-path="url(#p26d0a86662)" d="M 45.955766 57.510957 
L 47.537991 58.893963 
L 49.120217 60.671787 
L 50.702442 64.847794 
L 52.284668 68.001979 
L 53.866893 70.74462 
L 55.449118 76.510969 
L 57.031344 78.569211 
L 58.613569 78.544452 
L 60.195795 80.98927 
L 61.77802 81.932466 
L 63.360246 83.1135 
L 64.942471 84.589703 
L 66.524696 85.105752 
L 68.106922 86.359844 
L 69.689147 86.398029 
L 71.271373 84.930745 
L 72.853598 85.440851 
L 74.435824 87.576442 
L 76.018049 87.31327 
L 77.600274 95.465164 
L 79.1825 95.559241 
L 80.764725 96.045217 
L 82.346951 95.94645 
L 83.929176 99.107227 
L 85.511402 99.012434 
L 87.093627 99.085191 
L 88.675852 99.99052 
L 90.258078 99.863131 
L 91.840303 99.863131 
L 93.422529 100.591528 
L 95.004754 100.591528 
L 96.58698 100.535239 
L 98.169205 100.582396 
L 99.75143 100.573233 
L 101.333656 100.967574 
L 102.915881 100.929355 
L 104.498107 100.929355 
L 106.080332 101.051657 
L 107.662558 100.935627 
L 109.244783 100.935627 
L 110.827008 100.889226 
L 112.409234 102.401532 
L 113.991459 105.70446 
L 115.573685 105.834988 
L 117.15591 107.412622 
L 118.738136 107.395347 
L 120.320361 109.009658 
L 121.902586 111.499061 
L 123.484812 111.678943 
L 125.067037 112.173014 
L 126.649263 112.427455 
L 128.231488 111.956382 
L 129.813714 111.956382 
L 131.395939 111.956382 
L 132.978164 113.442815 
L 134.56039 113.442815 
L 136.142615 113.549215 
L 137.724841 113.844591 
L 139.307066 113.844591 
L 140.889292 113.848913 
L 142.471517 113.803812 
L 144.053742 113.803812 
L 145.635968 114.228365 
L 147.218193 114.285253 
L 148.800419 115.018552 
L 150.382644 115.018552 
L 151.96487 115.018552 
L 153.547095 115.37625 
L 155.12932 115.530347 
L 156.711546 115.530347 
L 158.293771 115.530347 
L 159.875997 115.530347 
L 161.458222 115.530347 
L 163.040448 115.530347 
L 164.622673 115.898508 
L 166.204898 115.898508 
L 167.787124 115.898508 
L 169.369349 115.898508 
L 170.951575 115.843406 
L 172.5338 116.28565 
L 174.116026 116.28565 
L 175.698251 116.28565 
L 177.280476 116.07029 
L 178.862702 116.07029 
L 180.444927 116.451361 
L 182.027153 116.594156 
L 183.609378 116.662894 
L 185.191604 116.662894 
L 186.773829 116.704301 
L 188.356054 116.704301 
L 189.93828 116.704301 
L 191.520505 116.695288 
L 193.102731 116.695288 
L 194.684956 116.681678 
L 196.267182 116.681678 
L 197.849407 116.681678 
L 199.431632 116.729366 
L 201.013858 116.729366 
L 202.596083 116.729366 
" style="fill:none;stroke:#ff7f0e;stroke-linecap:square;stroke-width:1.5;"/>
   </g>
   <g id="patch_3">
    <path d="M 38.12375 134.883077 
L 38.12375 11.52 
" style="fill:none;stroke:#000000;stroke-linecap:square;stroke-linejoin:miter;stroke-width:0.8;"/>
   </g>
   <g id="patch_4">
    <path d="M 210.428099 134.883077 
L 210.428099 11.52 
" style="fill:none;stroke:#000000;stroke-linecap:square;stroke-linejoin:miter;stroke-width:0.8;"/>
   </g>
   <g id="patch_5">
    <path d="M 38.12375 134.883077 
L 210.428099 134.883077 
" style="fill:none;stroke:#000000;stroke-linecap:square;stroke-linejoin:miter;stroke-width:0.8;"/>
   </g>
   <g id="patch_6">
    <path d="M 38.12375 11.52 
L 210.428099 11.52 
" style="fill:none;stroke:#000000;stroke-linecap:square;stroke-linejoin:miter;stroke-width:0.8;"/>
   </g>
  </g>
 </g>
 <defs>
  <clipPath id="p26d0a86662">
   <rect height="123.363077" width="172.304349" x="38.12375" y="11.52"/>
  </clipPath>
 </defs>
</svg>
