<?xml version="1.0" encoding="utf-8" standalone="no"?>
<!DOCTYPE svg PUBLIC "-//W3C//DTD SVG 1.1//EN"
  "http://www.w3.org/Graphics/SVG/1.1/DTD/svg11.dtd">
<!-- Created with matplotlib (https://matplotlib.org/) -->
<svg height="168.923077pt" version="1.1" viewBox="0 0 219.6 168.923077" width="219.6pt" xmlns="http://www.w3.org/2000/svg" xmlns:xlink="http://www.w3.org/1999/xlink">
 <defs>
  <style type="text/css">
*{stroke-linecap:butt;stroke-linejoin:round;}
  </style>
 </defs>
 <g id="figure_1">
  <g id="patch_1">
   <path d="M 0 168.923077 
L 219.6 168.923077 
L 219.6 0 
L 0 0 
z
" style="fill:none;"/>
  </g>
  <g id="axes_1">
   <g id="patch_2">
    <path d="M 40.28375 134.883077 
L 210.428099 134.883077 
L 210.428099 8.64 
L 40.28375 8.64 
z
" style="fill:none;"/>
   </g>
   <g id="PolyCollection_1">
    <defs>
     <path d="M 48.017584 -39.778322 
L 48.017584 -39.778322 
L 49.579975 -40.937579 
L 51.142365 -42.096835 
L 52.704756 -43.256092 
L 54.267147 -44.415349 
L 55.829538 -45.574606 
L 57.391928 -46.733863 
L 58.954319 -47.89312 
L 60.51671 -49.052377 
L 62.079101 -50.211634 
L 63.641491 -51.370891 
L 65.203882 -52.530148 
L 66.766273 -53.689405 
L 68.328663 -54.848661 
L 69.891054 -56.007918 
L 71.453445 -57.167175 
L 73.015836 -58.326432 
L 74.578226 -59.485689 
L 76.140617 -60.644946 
L 77.703008 -61.804203 
L 79.265398 -62.96346 
L 80.827789 -64.122717 
L 82.39018 -65.281974 
L 83.952571 -66.44123 
L 85.514961 -67.600487 
L 87.077352 -68.759744 
L 88.639743 -69.919001 
L 90.202133 -71.078258 
L 91.764524 -72.237515 
L 93.326915 -73.396772 
L 94.889306 -74.556029 
L 96.451696 -75.715286 
L 98.014087 -76.874543 
L 99.576478 -78.0338 
L 101.138868 -79.193056 
L 102.701259 -80.352313 
L 104.26365 -81.51157 
L 105.826041 -82.670827 
L 107.388431 -83.830084 
L 108.950822 -84.989341 
L 110.513213 -86.148598 
L 112.075603 -87.307855 
L 113.637994 -88.467112 
L 115.200385 -89.626369 
L 116.762776 -90.785625 
L 118.325166 -91.944882 
L 119.887557 -93.104139 
L 121.449948 -94.263396 
L 123.012339 -95.422653 
L 124.574729 -96.58191 
L 126.13712 -97.741167 
L 127.699511 -98.900424 
L 129.261901 -100.059681 
L 130.824292 -101.218938 
L 132.386683 -102.378195 
L 133.949074 -103.537451 
L 135.511464 -104.696708 
L 137.073855 -105.855965 
L 138.636246 -107.015222 
L 140.198636 -108.174479 
L 141.761027 -109.333736 
L 143.323418 -110.492993 
L 144.885809 -111.65225 
L 146.448199 -112.811507 
L 148.01059 -113.970764 
L 149.572981 -115.13002 
L 151.135371 -116.289277 
L 152.697762 -117.448534 
L 154.260153 -118.607791 
L 155.822544 -119.767048 
L 157.384934 -120.926305 
L 158.947325 -122.085562 
L 160.509716 -123.244819 
L 162.072106 -124.404076 
L 163.634497 -125.563333 
L 165.196888 -126.72259 
L 166.759279 -127.881846 
L 168.321669 -129.041103 
L 169.88406 -130.20036 
L 171.446451 -131.359617 
L 173.008841 -132.518874 
L 174.571232 -133.678131 
L 176.133623 -134.837388 
L 177.696014 -135.996645 
L 179.258404 -137.155902 
L 180.820795 -138.315159 
L 182.383186 -139.474415 
L 183.945577 -140.633672 
L 185.507967 -141.792929 
L 187.070358 -142.952186 
L 188.632749 -144.111443 
L 190.195139 -145.2707 
L 191.75753 -146.429957 
L 193.319921 -147.589214 
L 194.882312 -148.748471 
L 196.444702 -149.907728 
L 198.007093 -151.066985 
L 199.569484 -152.226241 
L 201.131874 -153.385498 
L 202.694265 -154.544755 
L 202.694265 -154.544755 
L 202.694265 -154.544755 
L 201.131874 -153.385498 
L 199.569484 -152.226241 
L 198.007093 -151.066985 
L 196.444702 -149.907728 
L 194.882312 -148.748471 
L 193.319921 -147.589214 
L 191.75753 -146.429957 
L 190.195139 -145.2707 
L 188.632749 -144.111443 
L 187.070358 -142.952186 
L 185.507967 -141.792929 
L 183.945577 -140.633672 
L 182.383186 -139.474415 
L 180.820795 -138.315159 
L 179.258404 -137.155902 
L 177.696014 -135.996645 
L 176.133623 -134.837388 
L 174.571232 -133.678131 
L 173.008841 -132.518874 
L 171.446451 -131.359617 
L 169.88406 -130.20036 
L 168.321669 -129.041103 
L 166.759279 -127.881846 
L 165.196888 -126.72259 
L 163.634497 -125.563333 
L 162.072106 -124.404076 
L 160.509716 -123.244819 
L 158.947325 -122.085562 
L 157.384934 -120.926305 
L 155.822544 -119.767048 
L 154.260153 -118.607791 
L 152.697762 -117.448534 
L 151.135371 -116.289277 
L 149.572981 -115.13002 
L 148.01059 -113.970764 
L 146.448199 -112.811507 
L 144.885809 -111.65225 
L 143.323418 -110.492993 
L 141.761027 -109.333736 
L 140.198636 -108.174479 
L 138.636246 -107.015222 
L 137.073855 -105.855965 
L 135.511464 -104.696708 
L 133.949074 -103.537451 
L 132.386683 -102.378195 
L 130.824292 -101.218938 
L 129.261901 -100.059681 
L 127.699511 -98.900424 
L 126.13712 -97.741167 
L 124.574729 -96.58191 
L 123.012339 -95.422653 
L 121.449948 -94.263396 
L 119.887557 -93.104139 
L 118.325166 -91.944882 
L 116.762776 -90.785625 
L 115.200385 -89.626369 
L 113.637994 -88.467112 
L 112.075603 -87.307855 
L 110.513213 -86.148598 
L 108.950822 -84.989341 
L 107.388431 -83.830084 
L 105.826041 -82.670827 
L 104.26365 -81.51157 
L 102.701259 -80.352313 
L 101.138868 -79.193056 
L 99.576478 -78.0338 
L 98.014087 -76.874543 
L 96.451696 -75.715286 
L 94.889306 -74.556029 
L 93.326915 -73.396772 
L 91.764524 -72.237515 
L 90.202133 -71.078258 
L 88.639743 -69.919001 
L 87.077352 -68.759744 
L 85.514961 -67.600487 
L 83.952571 -66.44123 
L 82.39018 -65.281974 
L 80.827789 -64.122717 
L 79.265398 -62.96346 
L 77.703008 -61.804203 
L 76.140617 -60.644946 
L 74.578226 -59.485689 
L 73.015836 -58.326432 
L 71.453445 -57.167175 
L 69.891054 -56.007918 
L 68.328663 -54.848661 
L 66.766273 -53.689405 
L 65.203882 -52.530148 
L 63.641491 -51.370891 
L 62.079101 -50.211634 
L 60.51671 -49.052377 
L 58.954319 -47.89312 
L 57.391928 -46.733863 
L 55.829538 -45.574606 
L 54.267147 -44.415349 
L 52.704756 -43.256092 
L 51.142365 -42.096835 
L 49.579975 -40.937579 
L 48.017584 -39.778322 
z
" id="m56cfc0710e" style="stroke:#ff7f0e;stroke-opacity:0.2;"/>
    </defs>
    <g clip-path="url(#pd8658b52ec)">
     <use style="fill:#ff7f0e;fill-opacity:0.2;stroke:#ff7f0e;stroke-opacity:0.2;" x="0" xlink:href="#m56cfc0710e" y="168.923077"/>
    </g>
   </g>
   <g id="matplotlib.axis_1">
    <g id="xtick_1">
     <g id="line2d_1">
      <defs>
       <path d="M 0 0 
L 0 3.5 
" id="m78cd2aa453" style="stroke:#000000;stroke-width:0.8;"/>
      </defs>
      <g>
       <use style="stroke:#000000;stroke-width:0.8;" x="48.017584" xlink:href="#m78cd2aa453" y="134.883077"/>
      </g>
     </g>
     <g id="text_1">
      <!-- 0 -->
      <defs>
       <path d="M 4.15625 35.296875 
Q 4.15625 48 6.765625 55.734375 
Q 9.375 63.484375 14.515625 67.671875 
Q 19.671875 71.875 27.484375 71.875 
Q 33.25 71.875 37.59375 69.546875 
Q 41.9375 67.234375 44.765625 62.859375 
Q 47.609375 58.5 49.21875 52.21875 
Q 50.828125 45.953125 50.828125 35.296875 
Q 50.828125 22.703125 48.234375 14.96875 
Q 45.65625 7.234375 40.5 3 
Q 35.359375 -1.21875 27.484375 -1.21875 
Q 17.140625 -1.21875 11.234375 6.203125 
Q 4.15625 15.140625 4.15625 35.296875 
z
M 13.1875 35.296875 
Q 13.1875 17.671875 17.3125 11.828125 
Q 21.4375 6 27.484375 6 
Q 33.546875 6 37.671875 11.859375 
Q 41.796875 17.71875 41.796875 35.296875 
Q 41.796875 52.984375 37.671875 58.78125 
Q 33.546875 64.59375 27.390625 64.59375 
Q 21.34375 64.59375 17.71875 59.46875 
Q 13.1875 52.9375 13.1875 35.296875 
z
" id="ArialMT-48"/>
      </defs>
      <g transform="translate(45.793209 147.609327)scale(0.08 -0.08)">
       <use xlink:href="#ArialMT-48"/>
      </g>
     </g>
    </g>
    <g id="xtick_2">
     <g id="line2d_2">
      <g>
       <use style="stroke:#000000;stroke-width:0.8;" x="79.265398" xlink:href="#m78cd2aa453" y="134.883077"/>
      </g>
     </g>
     <g id="text_2">
      <!-- 20 -->
      <defs>
       <path d="M 50.34375 8.453125 
L 50.34375 0 
L 3.03125 0 
Q 2.9375 3.171875 4.046875 6.109375 
Q 5.859375 10.9375 9.828125 15.625 
Q 13.8125 20.3125 21.34375 26.46875 
Q 33.015625 36.03125 37.109375 41.625 
Q 41.21875 47.21875 41.21875 52.203125 
Q 41.21875 57.421875 37.46875 61 
Q 33.734375 64.59375 27.734375 64.59375 
Q 21.390625 64.59375 17.578125 60.78125 
Q 13.765625 56.984375 13.71875 50.25 
L 4.6875 51.171875 
Q 5.609375 61.28125 11.65625 66.578125 
Q 17.71875 71.875 27.9375 71.875 
Q 38.234375 71.875 44.234375 66.15625 
Q 50.25 60.453125 50.25 52 
Q 50.25 47.703125 48.484375 43.546875 
Q 46.734375 39.40625 42.65625 34.8125 
Q 38.578125 30.21875 29.109375 22.21875 
Q 21.1875 15.578125 18.9375 13.203125 
Q 16.703125 10.84375 15.234375 8.453125 
z
" id="ArialMT-50"/>
      </defs>
      <g transform="translate(74.816648 147.609327)scale(0.08 -0.08)">
       <use xlink:href="#ArialMT-50"/>
       <use x="55.615234" xlink:href="#ArialMT-48"/>
      </g>
     </g>
    </g>
    <g id="xtick_3">
     <g id="line2d_3">
      <g>
       <use style="stroke:#000000;stroke-width:0.8;" x="110.513213" xlink:href="#m78cd2aa453" y="134.883077"/>
      </g>
     </g>
     <g id="text_3">
      <!-- 40 -->
      <defs>
       <path d="M 32.328125 0 
L 32.328125 17.140625 
L 1.265625 17.140625 
L 1.265625 25.203125 
L 33.9375 71.578125 
L 41.109375 71.578125 
L 41.109375 25.203125 
L 50.78125 25.203125 
L 50.78125 17.140625 
L 41.109375 17.140625 
L 41.109375 0 
z
M 32.328125 25.203125 
L 32.328125 57.46875 
L 9.90625 25.203125 
z
" id="ArialMT-52"/>
      </defs>
      <g transform="translate(106.064463 147.609327)scale(0.08 -0.08)">
       <use xlink:href="#ArialMT-52"/>
       <use x="55.615234" xlink:href="#ArialMT-48"/>
      </g>
     </g>
    </g>
    <g id="xtick_4">
     <g id="line2d_4">
      <g>
       <use style="stroke:#000000;stroke-width:0.8;" x="141.761027" xlink:href="#m78cd2aa453" y="134.883077"/>
      </g>
     </g>
     <g id="text_4">
      <!-- 60 -->
      <defs>
       <path d="M 49.75 54.046875 
L 41.015625 53.375 
Q 39.84375 58.546875 37.703125 60.890625 
Q 34.125 64.65625 28.90625 64.65625 
Q 24.703125 64.65625 21.53125 62.3125 
Q 17.390625 59.28125 14.984375 53.46875 
Q 12.59375 47.65625 12.5 36.921875 
Q 15.671875 41.75 20.265625 44.09375 
Q 24.859375 46.4375 29.890625 46.4375 
Q 38.671875 46.4375 44.84375 39.96875 
Q 51.03125 33.5 51.03125 23.25 
Q 51.03125 16.5 48.125 10.71875 
Q 45.21875 4.9375 40.140625 1.859375 
Q 35.0625 -1.21875 28.609375 -1.21875 
Q 17.625 -1.21875 10.6875 6.859375 
Q 3.765625 14.9375 3.765625 33.5 
Q 3.765625 54.25 11.421875 63.671875 
Q 18.109375 71.875 29.4375 71.875 
Q 37.890625 71.875 43.28125 67.140625 
Q 48.6875 62.40625 49.75 54.046875 
z
M 13.875 23.1875 
Q 13.875 18.65625 15.796875 14.5 
Q 17.71875 10.359375 21.1875 8.171875 
Q 24.65625 6 28.46875 6 
Q 34.03125 6 38.03125 10.484375 
Q 42.046875 14.984375 42.046875 22.703125 
Q 42.046875 30.125 38.078125 34.390625 
Q 34.125 38.671875 28.125 38.671875 
Q 22.171875 38.671875 18.015625 34.390625 
Q 13.875 30.125 13.875 23.1875 
z
" id="ArialMT-54"/>
      </defs>
      <g transform="translate(137.312277 147.609327)scale(0.08 -0.08)">
       <use xlink:href="#ArialMT-54"/>
       <use x="55.615234" xlink:href="#ArialMT-48"/>
      </g>
     </g>
    </g>
    <g id="xtick_5">
     <g id="line2d_5">
      <g>
       <use style="stroke:#000000;stroke-width:0.8;" x="173.008841" xlink:href="#m78cd2aa453" y="134.883077"/>
      </g>
     </g>
     <g id="text_5">
      <!-- 80 -->
      <defs>
       <path d="M 17.671875 38.8125 
Q 12.203125 40.828125 9.5625 44.53125 
Q 6.9375 48.25 6.9375 53.421875 
Q 6.9375 61.234375 12.546875 66.546875 
Q 18.171875 71.875 27.484375 71.875 
Q 36.859375 71.875 42.578125 66.421875 
Q 48.296875 60.984375 48.296875 53.171875 
Q 48.296875 48.1875 45.671875 44.5 
Q 43.0625 40.828125 37.75 38.8125 
Q 44.34375 36.671875 47.78125 31.875 
Q 51.21875 27.09375 51.21875 20.453125 
Q 51.21875 11.28125 44.71875 5.03125 
Q 38.234375 -1.21875 27.640625 -1.21875 
Q 17.046875 -1.21875 10.546875 5.046875 
Q 4.046875 11.328125 4.046875 20.703125 
Q 4.046875 27.6875 7.59375 32.390625 
Q 11.140625 37.109375 17.671875 38.8125 
z
M 15.921875 53.71875 
Q 15.921875 48.640625 19.1875 45.40625 
Q 22.46875 42.1875 27.6875 42.1875 
Q 32.765625 42.1875 36.015625 45.375 
Q 39.265625 48.578125 39.265625 53.21875 
Q 39.265625 58.0625 35.90625 61.359375 
Q 32.5625 64.65625 27.59375 64.65625 
Q 22.5625 64.65625 19.234375 61.421875 
Q 15.921875 58.203125 15.921875 53.71875 
z
M 13.09375 20.65625 
Q 13.09375 16.890625 14.875 13.375 
Q 16.65625 9.859375 20.171875 7.921875 
Q 23.6875 6 27.734375 6 
Q 34.03125 6 38.125 10.046875 
Q 42.234375 14.109375 42.234375 20.359375 
Q 42.234375 26.703125 38.015625 30.859375 
Q 33.796875 35.015625 27.4375 35.015625 
Q 21.234375 35.015625 17.15625 30.90625 
Q 13.09375 26.8125 13.09375 20.65625 
z
" id="ArialMT-56"/>
      </defs>
      <g transform="translate(168.560091 147.609327)scale(0.08 -0.08)">
       <use xlink:href="#ArialMT-56"/>
       <use x="55.615234" xlink:href="#ArialMT-48"/>
      </g>
     </g>
    </g>
    <g id="xtick_6">
     <g id="line2d_6">
      <g>
       <use style="stroke:#000000;stroke-width:0.8;" x="204.256656" xlink:href="#m78cd2aa453" y="134.883077"/>
      </g>
     </g>
     <g id="text_6">
      <!-- 100 -->
      <defs>
       <path d="M 37.25 0 
L 28.46875 0 
L 28.46875 56 
Q 25.296875 52.984375 20.140625 49.953125 
Q 14.984375 46.921875 10.890625 45.40625 
L 10.890625 53.90625 
Q 18.265625 57.375 23.78125 62.296875 
Q 29.296875 67.234375 31.59375 71.875 
L 37.25 71.875 
z
" id="ArialMT-49"/>
      </defs>
      <g transform="translate(197.583531 147.609327)scale(0.08 -0.08)">
       <use xlink:href="#ArialMT-49"/>
       <use x="55.615234" xlink:href="#ArialMT-48"/>
       <use x="111.230469" xlink:href="#ArialMT-48"/>
      </g>
     </g>
    </g>
    <g id="text_7">
     <!-- Round -->
     <defs>
      <path d="M 7.859375 0 
L 7.859375 71.578125 
L 39.59375 71.578125 
Q 49.171875 71.578125 54.140625 69.640625 
Q 59.125 67.71875 62.109375 62.828125 
Q 65.09375 57.953125 65.09375 52.046875 
Q 65.09375 44.4375 60.15625 39.203125 
Q 55.21875 33.984375 44.921875 32.5625 
Q 48.6875 30.765625 50.640625 29 
Q 54.78125 25.203125 58.5 19.484375 
L 70.953125 0 
L 59.03125 0 
L 49.5625 14.890625 
Q 45.40625 21.34375 42.71875 24.75 
Q 40.046875 28.171875 37.921875 29.53125 
Q 35.796875 30.90625 33.59375 31.453125 
Q 31.984375 31.78125 28.328125 31.78125 
L 17.328125 31.78125 
L 17.328125 0 
z
M 17.328125 39.984375 
L 37.703125 39.984375 
Q 44.1875 39.984375 47.84375 41.328125 
Q 51.515625 42.671875 53.421875 45.625 
Q 55.328125 48.578125 55.328125 52.046875 
Q 55.328125 57.125 51.640625 60.390625 
Q 47.953125 63.671875 39.984375 63.671875 
L 17.328125 63.671875 
z
" id="ArialMT-82"/>
      <path d="M 3.328125 25.921875 
Q 3.328125 40.328125 11.328125 47.265625 
Q 18.015625 53.03125 27.640625 53.03125 
Q 38.328125 53.03125 45.109375 46.015625 
Q 51.90625 39.015625 51.90625 26.65625 
Q 51.90625 16.65625 48.90625 10.90625 
Q 45.90625 5.171875 40.15625 2 
Q 34.421875 -1.171875 27.640625 -1.171875 
Q 16.75 -1.171875 10.03125 5.8125 
Q 3.328125 12.796875 3.328125 25.921875 
z
M 12.359375 25.921875 
Q 12.359375 15.96875 16.703125 11.015625 
Q 21.046875 6.0625 27.640625 6.0625 
Q 34.1875 6.0625 38.53125 11.03125 
Q 42.875 16.015625 42.875 26.21875 
Q 42.875 35.84375 38.5 40.796875 
Q 34.125 45.75 27.640625 45.75 
Q 21.046875 45.75 16.703125 40.8125 
Q 12.359375 35.890625 12.359375 25.921875 
z
" id="ArialMT-111"/>
      <path d="M 40.578125 0 
L 40.578125 7.625 
Q 34.515625 -1.171875 24.125 -1.171875 
Q 19.53125 -1.171875 15.546875 0.578125 
Q 11.578125 2.34375 9.640625 5 
Q 7.71875 7.671875 6.9375 11.53125 
Q 6.390625 14.109375 6.390625 19.734375 
L 6.390625 51.859375 
L 15.1875 51.859375 
L 15.1875 23.09375 
Q 15.1875 16.21875 15.71875 13.8125 
Q 16.546875 10.359375 19.234375 8.375 
Q 21.921875 6.390625 25.875 6.390625 
Q 29.828125 6.390625 33.296875 8.421875 
Q 36.765625 10.453125 38.203125 13.9375 
Q 39.65625 17.4375 39.65625 24.078125 
L 39.65625 51.859375 
L 48.4375 51.859375 
L 48.4375 0 
z
" id="ArialMT-117"/>
      <path d="M 6.59375 0 
L 6.59375 51.859375 
L 14.5 51.859375 
L 14.5 44.484375 
Q 20.21875 53.03125 31 53.03125 
Q 35.6875 53.03125 39.625 51.34375 
Q 43.5625 49.65625 45.515625 46.921875 
Q 47.46875 44.1875 48.25 40.4375 
Q 48.734375 37.984375 48.734375 31.890625 
L 48.734375 0 
L 39.9375 0 
L 39.9375 31.546875 
Q 39.9375 36.921875 38.90625 39.578125 
Q 37.890625 42.234375 35.28125 43.8125 
Q 32.671875 45.40625 29.15625 45.40625 
Q 23.53125 45.40625 19.453125 41.84375 
Q 15.375 38.28125 15.375 28.328125 
L 15.375 0 
z
" id="ArialMT-110"/>
      <path d="M 40.234375 0 
L 40.234375 6.546875 
Q 35.296875 -1.171875 25.734375 -1.171875 
Q 19.53125 -1.171875 14.328125 2.25 
Q 9.125 5.671875 6.265625 11.796875 
Q 3.421875 17.921875 3.421875 25.875 
Q 3.421875 33.640625 6 39.96875 
Q 8.59375 46.296875 13.765625 49.65625 
Q 18.953125 53.03125 25.34375 53.03125 
Q 30.03125 53.03125 33.6875 51.046875 
Q 37.359375 49.078125 39.65625 45.90625 
L 39.65625 71.578125 
L 48.390625 71.578125 
L 48.390625 0 
z
M 12.453125 25.875 
Q 12.453125 15.921875 16.640625 10.984375 
Q 20.84375 6.0625 26.5625 6.0625 
Q 32.328125 6.0625 36.34375 10.765625 
Q 40.375 15.484375 40.375 25.140625 
Q 40.375 35.796875 36.265625 40.765625 
Q 32.171875 45.75 26.171875 45.75 
Q 20.3125 45.75 16.375 40.96875 
Q 12.453125 36.1875 12.453125 25.875 
z
" id="ArialMT-100"/>
     </defs>
     <g transform="translate(113.569675 158.925577)scale(0.08 -0.08)">
      <use xlink:href="#ArialMT-82"/>
      <use x="72.216797" xlink:href="#ArialMT-111"/>
      <use x="127.832031" xlink:href="#ArialMT-117"/>
      <use x="183.447266" xlink:href="#ArialMT-110"/>
      <use x="239.0625" xlink:href="#ArialMT-100"/>
     </g>
    </g>
   </g>
   <g id="matplotlib.axis_2">
    <g id="ytick_1">
     <g id="line2d_7">
      <defs>
       <path d="M 0 0 
L -3.5 0 
" id="m6b91598c16" style="stroke:#000000;stroke-width:0.8;"/>
      </defs>
      <g>
       <use style="stroke:#000000;stroke-width:0.8;" x="40.28375" xlink:href="#m6b91598c16" y="129.144755"/>
      </g>
     </g>
     <g id="text_8">
      <!-- 0 -->
      <g transform="translate(28.835 132.00788)scale(0.08 -0.08)">
       <use xlink:href="#ArialMT-48"/>
      </g>
     </g>
    </g>
    <g id="ytick_2">
     <g id="line2d_8">
      <g>
       <use style="stroke:#000000;stroke-width:0.8;" x="40.28375" xlink:href="#m6b91598c16" y="105.959617"/>
      </g>
     </g>
     <g id="text_9">
      <!-- 20 -->
      <g transform="translate(24.38625 108.822742)scale(0.08 -0.08)">
       <use xlink:href="#ArialMT-50"/>
       <use x="55.615234" xlink:href="#ArialMT-48"/>
      </g>
     </g>
    </g>
    <g id="ytick_3">
     <g id="line2d_9">
      <g>
       <use style="stroke:#000000;stroke-width:0.8;" x="40.28375" xlink:href="#m6b91598c16" y="82.774479"/>
      </g>
     </g>
     <g id="text_10">
      <!-- 40 -->
      <g transform="translate(24.38625 85.637604)scale(0.08 -0.08)">
       <use xlink:href="#ArialMT-52"/>
       <use x="55.615234" xlink:href="#ArialMT-48"/>
      </g>
     </g>
    </g>
    <g id="ytick_4">
     <g id="line2d_10">
      <g>
       <use style="stroke:#000000;stroke-width:0.8;" x="40.28375" xlink:href="#m6b91598c16" y="59.589341"/>
      </g>
     </g>
     <g id="text_11">
      <!-- 60 -->
      <g transform="translate(24.38625 62.452466)scale(0.08 -0.08)">
       <use xlink:href="#ArialMT-54"/>
       <use x="55.615234" xlink:href="#ArialMT-48"/>
      </g>
     </g>
    </g>
    <g id="ytick_5">
     <g id="line2d_11">
      <g>
       <use style="stroke:#000000;stroke-width:0.8;" x="40.28375" xlink:href="#m6b91598c16" y="36.404203"/>
      </g>
     </g>
     <g id="text_12">
      <!-- 80 -->
      <g transform="translate(24.38625 39.267328)scale(0.08 -0.08)">
       <use xlink:href="#ArialMT-56"/>
       <use x="55.615234" xlink:href="#ArialMT-48"/>
      </g>
     </g>
    </g>
    <g id="ytick_6">
     <g id="line2d_12">
      <g>
       <use style="stroke:#000000;stroke-width:0.8;" x="40.28375" xlink:href="#m6b91598c16" y="13.219065"/>
      </g>
     </g>
     <g id="text_13">
      <!-- 100 -->
      <g transform="translate(19.9375 16.08219)scale(0.08 -0.08)">
       <use xlink:href="#ArialMT-49"/>
       <use x="55.615234" xlink:href="#ArialMT-48"/>
       <use x="111.230469" xlink:href="#ArialMT-48"/>
      </g>
     </g>
    </g>
    <g id="text_14">
     <!-- N_data_fusion_points -->
     <defs>
      <path d="M 7.625 0 
L 7.625 71.578125 
L 17.328125 71.578125 
L 54.9375 15.375 
L 54.9375 71.578125 
L 64.015625 71.578125 
L 64.015625 0 
L 54.296875 0 
L 16.703125 56.25 
L 16.703125 0 
z
" id="ArialMT-78"/>
      <path d="M -1.515625 -19.875 
L -1.515625 -13.53125 
L 56.734375 -13.53125 
L 56.734375 -19.875 
z
" id="ArialMT-95"/>
      <path d="M 40.4375 6.390625 
Q 35.546875 2.25 31.03125 0.53125 
Q 26.515625 -1.171875 21.34375 -1.171875 
Q 12.796875 -1.171875 8.203125 3 
Q 3.609375 7.171875 3.609375 13.671875 
Q 3.609375 17.484375 5.34375 20.625 
Q 7.078125 23.78125 9.890625 25.6875 
Q 12.703125 27.59375 16.21875 28.5625 
Q 18.796875 29.25 24.03125 29.890625 
Q 34.671875 31.15625 39.703125 32.90625 
Q 39.75 34.71875 39.75 35.203125 
Q 39.75 40.578125 37.25 42.78125 
Q 33.890625 45.75 27.25 45.75 
Q 21.046875 45.75 18.09375 43.578125 
Q 15.140625 41.40625 13.71875 35.890625 
L 5.125 37.0625 
Q 6.296875 42.578125 8.984375 45.96875 
Q 11.671875 49.359375 16.75 51.1875 
Q 21.828125 53.03125 28.515625 53.03125 
Q 35.15625 53.03125 39.296875 51.46875 
Q 43.453125 49.90625 45.40625 47.53125 
Q 47.359375 45.171875 48.140625 41.546875 
Q 48.578125 39.3125 48.578125 33.453125 
L 48.578125 21.734375 
Q 48.578125 9.46875 49.140625 6.21875 
Q 49.703125 2.984375 51.375 0 
L 42.1875 0 
Q 40.828125 2.734375 40.4375 6.390625 
z
M 39.703125 26.03125 
Q 34.90625 24.078125 25.34375 22.703125 
Q 19.921875 21.921875 17.671875 20.9375 
Q 15.4375 19.96875 14.203125 18.09375 
Q 12.984375 16.21875 12.984375 13.921875 
Q 12.984375 10.40625 15.640625 8.0625 
Q 18.3125 5.71875 23.4375 5.71875 
Q 28.515625 5.71875 32.46875 7.9375 
Q 36.421875 10.15625 38.28125 14.015625 
Q 39.703125 17 39.703125 22.796875 
z
" id="ArialMT-97"/>
      <path d="M 25.78125 7.859375 
L 27.046875 0.09375 
Q 23.34375 -0.6875 20.40625 -0.6875 
Q 15.625 -0.6875 12.984375 0.828125 
Q 10.359375 2.34375 9.28125 4.8125 
Q 8.203125 7.28125 8.203125 15.1875 
L 8.203125 45.015625 
L 1.765625 45.015625 
L 1.765625 51.859375 
L 8.203125 51.859375 
L 8.203125 64.703125 
L 16.9375 69.96875 
L 16.9375 51.859375 
L 25.78125 51.859375 
L 25.78125 45.015625 
L 16.9375 45.015625 
L 16.9375 14.703125 
Q 16.9375 10.9375 17.40625 9.859375 
Q 17.875 8.796875 18.921875 8.15625 
Q 19.96875 7.515625 21.921875 7.515625 
Q 23.390625 7.515625 25.78125 7.859375 
z
" id="ArialMT-116"/>
      <path d="M 8.6875 0 
L 8.6875 45.015625 
L 0.921875 45.015625 
L 0.921875 51.859375 
L 8.6875 51.859375 
L 8.6875 57.375 
Q 8.6875 62.59375 9.625 65.140625 
Q 10.890625 68.5625 14.078125 70.671875 
Q 17.28125 72.796875 23.046875 72.796875 
Q 26.765625 72.796875 31.25 71.921875 
L 29.9375 64.265625 
Q 27.203125 64.75 24.75 64.75 
Q 20.75 64.75 19.09375 63.03125 
Q 17.4375 61.328125 17.4375 56.640625 
L 17.4375 51.859375 
L 27.546875 51.859375 
L 27.546875 45.015625 
L 17.4375 45.015625 
L 17.4375 0 
z
" id="ArialMT-102"/>
      <path d="M 3.078125 15.484375 
L 11.765625 16.84375 
Q 12.5 11.625 15.84375 8.84375 
Q 19.1875 6.0625 25.203125 6.0625 
Q 31.25 6.0625 34.171875 8.515625 
Q 37.109375 10.984375 37.109375 14.3125 
Q 37.109375 17.28125 34.515625 19 
Q 32.71875 20.171875 25.53125 21.96875 
Q 15.875 24.421875 12.140625 26.203125 
Q 8.40625 27.984375 6.46875 31.125 
Q 4.546875 34.28125 4.546875 38.09375 
Q 4.546875 41.546875 6.125 44.5 
Q 7.71875 47.46875 10.453125 49.421875 
Q 12.5 50.921875 16.03125 51.96875 
Q 19.578125 53.03125 23.640625 53.03125 
Q 29.734375 53.03125 34.34375 51.265625 
Q 38.96875 49.515625 41.15625 46.5 
Q 43.359375 43.5 44.1875 38.484375 
L 35.59375 37.3125 
Q 35.015625 41.3125 32.203125 43.546875 
Q 29.390625 45.796875 24.265625 45.796875 
Q 18.21875 45.796875 15.625 43.796875 
Q 13.03125 41.796875 13.03125 39.109375 
Q 13.03125 37.40625 14.109375 36.03125 
Q 15.1875 34.625 17.484375 33.6875 
Q 18.796875 33.203125 25.25 31.453125 
Q 34.578125 28.953125 38.25 27.359375 
Q 41.9375 25.78125 44.03125 22.75 
Q 46.140625 19.734375 46.140625 15.234375 
Q 46.140625 10.84375 43.578125 6.953125 
Q 41.015625 3.078125 36.171875 0.953125 
Q 31.34375 -1.171875 25.25 -1.171875 
Q 15.140625 -1.171875 9.84375 3.03125 
Q 4.546875 7.234375 3.078125 15.484375 
z
" id="ArialMT-115"/>
      <path d="M 6.640625 61.46875 
L 6.640625 71.578125 
L 15.4375 71.578125 
L 15.4375 61.46875 
z
M 6.640625 0 
L 6.640625 51.859375 
L 15.4375 51.859375 
L 15.4375 0 
z
" id="ArialMT-105"/>
      <path d="M 6.59375 -19.875 
L 6.59375 51.859375 
L 14.59375 51.859375 
L 14.59375 45.125 
Q 17.4375 49.078125 21 51.046875 
Q 24.5625 53.03125 29.640625 53.03125 
Q 36.28125 53.03125 41.359375 49.609375 
Q 46.4375 46.1875 49.015625 39.953125 
Q 51.609375 33.734375 51.609375 26.3125 
Q 51.609375 18.359375 48.75 11.984375 
Q 45.90625 5.609375 40.453125 2.21875 
Q 35.015625 -1.171875 29 -1.171875 
Q 24.609375 -1.171875 21.109375 0.6875 
Q 17.625 2.546875 15.375 5.375 
L 15.375 -19.875 
z
M 14.546875 25.640625 
Q 14.546875 15.625 18.59375 10.84375 
Q 22.65625 6.0625 28.421875 6.0625 
Q 34.28125 6.0625 38.453125 11.015625 
Q 42.625 15.96875 42.625 26.375 
Q 42.625 36.28125 38.546875 41.203125 
Q 34.46875 46.140625 28.8125 46.140625 
Q 23.1875 46.140625 18.859375 40.890625 
Q 14.546875 35.640625 14.546875 25.640625 
z
" id="ArialMT-112"/>
     </defs>
     <g transform="translate(14.3475 110.454038)rotate(-90)scale(0.08 -0.08)">
      <use xlink:href="#ArialMT-78"/>
      <use x="72.216797" xlink:href="#ArialMT-95"/>
      <use x="127.832031" xlink:href="#ArialMT-100"/>
      <use x="183.447266" xlink:href="#ArialMT-97"/>
      <use x="239.0625" xlink:href="#ArialMT-116"/>
      <use x="266.845703" xlink:href="#ArialMT-97"/>
      <use x="322.460938" xlink:href="#ArialMT-95"/>
      <use x="378.076172" xlink:href="#ArialMT-102"/>
      <use x="405.859375" xlink:href="#ArialMT-117"/>
      <use x="461.474609" xlink:href="#ArialMT-115"/>
      <use x="511.474609" xlink:href="#ArialMT-105"/>
      <use x="533.691406" xlink:href="#ArialMT-111"/>
      <use x="589.306641" xlink:href="#ArialMT-110"/>
      <use x="644.921875" xlink:href="#ArialMT-95"/>
      <use x="700.537109" xlink:href="#ArialMT-112"/>
      <use x="756.152344" xlink:href="#ArialMT-111"/>
      <use x="811.767578" xlink:href="#ArialMT-105"/>
      <use x="833.984375" xlink:href="#ArialMT-110"/>
      <use x="889.599609" xlink:href="#ArialMT-116"/>
      <use x="917.382812" xlink:href="#ArialMT-115"/>
     </g>
    </g>
   </g>
   <g id="line2d_13">
    <path clip-path="url(#pd8658b52ec)" d="M 48.017584 129.144755 
L 49.579975 127.985498 
L 51.142365 126.826241 
L 52.704756 125.666985 
L 54.267147 124.507728 
L 55.829538 123.348471 
L 57.391928 122.189214 
L 58.954319 121.029957 
L 60.51671 119.8707 
L 62.079101 118.711443 
L 63.641491 117.552186 
L 65.203882 116.392929 
L 66.766273 115.233672 
L 68.328663 114.074415 
L 69.891054 112.915159 
L 71.453445 111.755902 
L 73.015836 110.596645 
L 74.578226 109.437388 
L 76.140617 108.278131 
L 77.703008 107.118874 
L 79.265398 105.959617 
L 80.827789 104.80036 
L 82.39018 103.641103 
L 83.952571 102.481846 
L 85.514961 101.32259 
L 87.077352 100.163333 
L 88.639743 99.004076 
L 90.202133 97.844819 
L 91.764524 96.685562 
L 93.326915 95.526305 
L 94.889306 94.367048 
L 96.451696 93.207791 
L 98.014087 92.048534 
L 99.576478 90.889277 
L 101.138868 89.73002 
L 102.701259 88.570764 
L 104.26365 87.411507 
L 105.826041 86.25225 
L 107.388431 85.092993 
L 108.950822 83.933736 
L 110.513213 82.774479 
L 112.075603 81.615222 
L 113.637994 80.455965 
L 115.200385 79.296708 
L 116.762776 78.137451 
L 118.325166 76.978195 
L 119.887557 75.818938 
L 121.449948 74.659681 
L 123.012339 73.500424 
L 124.574729 72.341167 
L 126.13712 71.18191 
L 127.699511 70.022653 
L 129.261901 68.863396 
L 130.824292 67.704139 
L 132.386683 66.544882 
L 133.949074 65.385625 
L 135.511464 64.226369 
L 137.073855 63.067112 
L 138.636246 61.907855 
L 140.198636 60.748598 
L 141.761027 59.589341 
L 143.323418 58.430084 
L 144.885809 57.270827 
L 146.448199 56.11157 
L 148.01059 54.952313 
L 149.572981 53.793056 
L 151.135371 52.6338 
L 152.697762 51.474543 
L 154.260153 50.315286 
L 155.822544 49.156029 
L 157.384934 47.996772 
L 158.947325 46.837515 
L 160.509716 45.678258 
L 162.072106 44.519001 
L 163.634497 43.359744 
L 165.196888 42.200487 
L 166.759279 41.04123 
L 168.321669 39.881974 
L 169.88406 38.722717 
L 171.446451 37.56346 
L 173.008841 36.404203 
L 174.571232 35.244946 
L 176.133623 34.085689 
L 177.696014 32.926432 
L 179.258404 31.767175 
L 180.820795 30.607918 
L 182.383186 29.448661 
L 183.945577 28.289405 
L 185.507967 27.130148 
L 187.070358 25.970891 
L 188.632749 24.811634 
L 190.195139 23.652377 
L 191.75753 22.49312 
L 193.319921 21.333863 
L 194.882312 20.174606 
L 196.444702 19.015349 
L 198.007093 17.856092 
L 199.569484 16.696835 
L 201.131874 15.537579 
L 202.694265 14.378322 
" style="fill:none;stroke:#ff7f0e;stroke-linecap:square;stroke-width:1.5;"/>
   </g>
   <g id="patch_3">
    <path d="M 40.28375 134.883077 
L 40.28375 8.64 
" style="fill:none;stroke:#000000;stroke-linecap:square;stroke-linejoin:miter;stroke-width:0.8;"/>
   </g>
   <g id="patch_4">
    <path d="M 210.428099 134.883077 
L 210.428099 8.64 
" style="fill:none;stroke:#000000;stroke-linecap:square;stroke-linejoin:miter;stroke-width:0.8;"/>
   </g>
   <g id="patch_5">
    <path d="M 40.28375 134.883077 
L 210.428099 134.883077 
" style="fill:none;stroke:#000000;stroke-linecap:square;stroke-linejoin:miter;stroke-width:0.8;"/>
   </g>
   <g id="patch_6">
    <path d="M 40.28375 8.64 
L 210.428099 8.64 
" style="fill:none;stroke:#000000;stroke-linecap:square;stroke-linejoin:miter;stroke-width:0.8;"/>
   </g>
  </g>
 </g>
 <defs>
  <clipPath id="pd8658b52ec">
   <rect height="126.243077" width="170.144349" x="40.28375" y="8.64"/>
  </clipPath>
 </defs>
</svg>
