<?xml version="1.0" encoding="utf-8" standalone="no"?>
<!DOCTYPE svg PUBLIC "-//W3C//DTD SVG 1.1//EN"
  "http://www.w3.org/Graphics/SVG/1.1/DTD/svg11.dtd">
<!-- Created with matplotlib (https://matplotlib.org/) -->
<svg height="168.923077pt" version="1.1" viewBox="0 0 219.6 168.923077" width="219.6pt" xmlns="http://www.w3.org/2000/svg" xmlns:xlink="http://www.w3.org/1999/xlink">
 <defs>
  <style type="text/css">
*{stroke-linecap:butt;stroke-linejoin:round;}
  </style>
 </defs>
 <g id="figure_1">
  <g id="patch_1">
   <path d="M 0 168.923077 
L 219.6 168.923077 
L 219.6 0 
L 0 0 
z
" style="fill:none;"/>
  </g>
  <g id="axes_1">
   <g id="patch_2">
    <path d="M 49.28375 134.883077 
L 210.428099 134.883077 
L 210.428099 11.52 
L 49.28375 11.52 
z
" style="fill:none;"/>
   </g>
   <g id="PolyCollection_1">
    <defs>
     <path d="M 56.608493 -154.014062 
L 56.608493 -127.657264 
L 58.088239 -106.009489 
L 59.567985 -94.190089 
L 61.047731 -82.782787 
L 62.527478 -80.807858 
L 64.007224 -76.304202 
L 65.48697 -72.113828 
L 66.966716 -64.443042 
L 68.446462 -63.42919 
L 69.926208 -60.856924 
L 71.405954 -58.438962 
L 72.8857 -57.246782 
L 74.365446 -55.768241 
L 75.845192 -54.29328 
L 77.324938 -52.262137 
L 78.804684 -50.003603 
L 80.284431 -49.508319 
L 81.764177 -48.654616 
L 83.243923 -48.497059 
L 84.723669 -46.300611 
L 86.203415 -43.8418 
L 87.683161 -41.857019 
L 89.162907 -41.768136 
L 90.642653 -41.345826 
L 92.122399 -40.907104 
L 93.602145 -38.511356 
L 95.081891 -38.43793 
L 96.561638 -38.237458 
L 98.041384 -37.309657 
L 99.52113 -37.41216 
L 101.000876 -34.922716 
L 102.480622 -34.403309 
L 103.960368 -33.485604 
L 105.440114 -33.968526 
L 106.91986 -33.307986 
L 108.399606 -32.408089 
L 109.879352 -32.144638 
L 111.359098 -32.980502 
L 112.838845 -31.851447 
L 114.318591 -31.210891 
L 115.798337 -31.906968 
L 117.278083 -31.502617 
L 118.757829 -30.358111 
L 120.237575 -30.241537 
L 121.717321 -31.116547 
L 123.197067 -28.89737 
L 124.676813 -29.094191 
L 126.156559 -28.113126 
L 127.636305 -25.937048 
L 129.116052 -25.194074 
L 130.595798 -24.612955 
L 132.075544 -24.502413 
L 133.55529 -23.568225 
L 135.035036 -23.713084 
L 136.514782 -23.657373 
L 137.994528 -21.233959 
L 139.474274 -21.276229 
L 140.95402 -20.90851 
L 142.433766 -20.907908 
L 143.913512 -20.524984 
L 145.393259 -20.278465 
L 146.873005 -19.970657 
L 148.352751 -20.47849 
L 149.832497 -19.299246 
L 151.312243 -19.236226 
L 152.791989 -19.348847 
L 154.271735 -19.869718 
L 155.751481 -19.621413 
L 157.231227 -18.039759 
L 158.710973 -18.131602 
L 160.190719 -17.101213 
L 161.670466 -17.3217 
L 163.150212 -17.550205 
L 164.629958 -17.605217 
L 166.109704 -17.830201 
L 167.58945 -17.593277 
L 169.069196 -17.714469 
L 170.548942 -17.16487 
L 172.028688 -17.405175 
L 173.508434 -17.500507 
L 174.98818 -17.46048 
L 176.467926 -17.558127 
L 177.947673 -17.53247 
L 179.427419 -16.788453 
L 180.907165 -16.803833 
L 182.386911 -16.961346 
L 183.866657 -16.600523 
L 185.346403 -16.20064 
L 186.826149 -16.420482 
L 188.305895 -16.404816 
L 189.785641 -16.248071 
L 191.265387 -16.213763 
L 192.745133 -15.336095 
L 194.224879 -15.296773 
L 195.704626 -15.484254 
L 197.184372 -15.960612 
L 198.664118 -15.481445 
L 200.143864 -15.138704 
L 201.62361 -15.480619 
L 203.103356 -15.365176 
L 203.103356 -33.48455 
L 203.103356 -33.48455 
L 201.62361 -32.466659 
L 200.143864 -32.174973 
L 198.664118 -33.414194 
L 197.184372 -33.427683 
L 195.704626 -33.411178 
L 194.224879 -33.431668 
L 192.745133 -33.997315 
L 191.265387 -34.275802 
L 189.785641 -34.398362 
L 188.305895 -34.022665 
L 186.826149 -33.957703 
L 185.346403 -34.109562 
L 183.866657 -35.076028 
L 182.386911 -34.977969 
L 180.907165 -35.665452 
L 179.427419 -35.716019 
L 177.947673 -36.02872 
L 176.467926 -35.77432 
L 174.98818 -35.60024 
L 173.508434 -35.278577 
L 172.028688 -35.838227 
L 170.548942 -35.74786 
L 169.069196 -36.081267 
L 167.58945 -35.876131 
L 166.109704 -36.902751 
L 164.629958 -35.952971 
L 163.150212 -36.040886 
L 161.670466 -35.511788 
L 160.190719 -35.563896 
L 158.710973 -37.002774 
L 157.231227 -36.767448 
L 155.751481 -38.510738 
L 154.271735 -38.030385 
L 152.791989 -37.862331 
L 151.312243 -38.562768 
L 149.832497 -38.661031 
L 148.352751 -39.040312 
L 146.873005 -40.391635 
L 145.393259 -39.494281 
L 143.913512 -39.457264 
L 142.433766 -40.138856 
L 140.95402 -40.586884 
L 139.474274 -40.406549 
L 137.994528 -40.745886 
L 136.514782 -42.5487 
L 135.035036 -42.295062 
L 133.55529 -42.960109 
L 132.075544 -43.145934 
L 130.595798 -43.145248 
L 129.116052 -44.014556 
L 127.636305 -46.236046 
L 126.156559 -48.853646 
L 124.676813 -48.396901 
L 123.197067 -48.972951 
L 121.717321 -50.510515 
L 120.237575 -49.764958 
L 118.757829 -50.324838 
L 117.278083 -52.308142 
L 115.798337 -51.922109 
L 114.318591 -51.98621 
L 112.838845 -53.062618 
L 111.359098 -52.436785 
L 109.879352 -52.258569 
L 108.399606 -53.660088 
L 106.91986 -53.191825 
L 105.440114 -54.274181 
L 103.960368 -53.899036 
L 102.480622 -53.246055 
L 101.000876 -54.050595 
L 99.52113 -56.485767 
L 98.041384 -56.276007 
L 96.561638 -57.260321 
L 95.081891 -58.624374 
L 93.602145 -58.544134 
L 92.122399 -59.110682 
L 90.642653 -60.319234 
L 89.162907 -62.225032 
L 87.683161 -62.247827 
L 86.203415 -63.422579 
L 84.723669 -65.929998 
L 83.243923 -68.879102 
L 81.764177 -68.931528 
L 80.284431 -71.572599 
L 78.804684 -72.069423 
L 77.324938 -72.994299 
L 75.845192 -74.254412 
L 74.365446 -75.729238 
L 72.8857 -77.844647 
L 71.405954 -79.217857 
L 69.926208 -80.306698 
L 68.446462 -83.477319 
L 66.966716 -83.859899 
L 65.48697 -90.755771 
L 64.007224 -96.017826 
L 62.527478 -103.588236 
L 61.047731 -105.149854 
L 59.567985 -118.456917 
L 58.088239 -132.383264 
L 56.608493 -154.014062 
z
" id="m2eb4684789" style="stroke:#ff7f0e;stroke-opacity:0.2;"/>
    </defs>
    <g clip-path="url(#p4e9f177380)">
     <use style="fill:#ff7f0e;fill-opacity:0.2;stroke:#ff7f0e;stroke-opacity:0.2;" x="0" xlink:href="#m2eb4684789" y="168.923077"/>
    </g>
   </g>
   <g id="matplotlib.axis_1">
    <g id="xtick_1">
     <g id="line2d_1">
      <defs>
       <path d="M 0 0 
L 0 3.5 
" id="md508bf02bf" style="stroke:#000000;stroke-width:0.8;"/>
      </defs>
      <g>
       <use style="stroke:#000000;stroke-width:0.8;" x="56.608493" xlink:href="#md508bf02bf" y="134.883077"/>
      </g>
     </g>
     <g id="text_1">
      <!-- 0 -->
      <defs>
       <path d="M 4.15625 35.296875 
Q 4.15625 48 6.765625 55.734375 
Q 9.375 63.484375 14.515625 67.671875 
Q 19.671875 71.875 27.484375 71.875 
Q 33.25 71.875 37.59375 69.546875 
Q 41.9375 67.234375 44.765625 62.859375 
Q 47.609375 58.5 49.21875 52.21875 
Q 50.828125 45.953125 50.828125 35.296875 
Q 50.828125 22.703125 48.234375 14.96875 
Q 45.65625 7.234375 40.5 3 
Q 35.359375 -1.21875 27.484375 -1.21875 
Q 17.140625 -1.21875 11.234375 6.203125 
Q 4.15625 15.140625 4.15625 35.296875 
z
M 13.1875 35.296875 
Q 13.1875 17.671875 17.3125 11.828125 
Q 21.4375 6 27.484375 6 
Q 33.546875 6 37.671875 11.859375 
Q 41.796875 17.71875 41.796875 35.296875 
Q 41.796875 52.984375 37.671875 58.78125 
Q 33.546875 64.59375 27.390625 64.59375 
Q 21.34375 64.59375 17.71875 59.46875 
Q 13.1875 52.9375 13.1875 35.296875 
z
" id="ArialMT-48"/>
      </defs>
      <g transform="translate(54.384118 147.609327)scale(0.08 -0.08)">
       <use xlink:href="#ArialMT-48"/>
      </g>
     </g>
    </g>
    <g id="xtick_2">
     <g id="line2d_2">
      <g>
       <use style="stroke:#000000;stroke-width:0.8;" x="86.203415" xlink:href="#md508bf02bf" y="134.883077"/>
      </g>
     </g>
     <g id="text_2">
      <!-- 20 -->
      <defs>
       <path d="M 50.34375 8.453125 
L 50.34375 0 
L 3.03125 0 
Q 2.9375 3.171875 4.046875 6.109375 
Q 5.859375 10.9375 9.828125 15.625 
Q 13.8125 20.3125 21.34375 26.46875 
Q 33.015625 36.03125 37.109375 41.625 
Q 41.21875 47.21875 41.21875 52.203125 
Q 41.21875 57.421875 37.46875 61 
Q 33.734375 64.59375 27.734375 64.59375 
Q 21.390625 64.59375 17.578125 60.78125 
Q 13.765625 56.984375 13.71875 50.25 
L 4.6875 51.171875 
Q 5.609375 61.28125 11.65625 66.578125 
Q 17.71875 71.875 27.9375 71.875 
Q 38.234375 71.875 44.234375 66.15625 
Q 50.25 60.453125 50.25 52 
Q 50.25 47.703125 48.484375 43.546875 
Q 46.734375 39.40625 42.65625 34.8125 
Q 38.578125 30.21875 29.109375 22.21875 
Q 21.1875 15.578125 18.9375 13.203125 
Q 16.703125 10.84375 15.234375 8.453125 
z
" id="ArialMT-50"/>
      </defs>
      <g transform="translate(81.754665 147.609327)scale(0.08 -0.08)">
       <use xlink:href="#ArialMT-50"/>
       <use x="55.615234" xlink:href="#ArialMT-48"/>
      </g>
     </g>
    </g>
    <g id="xtick_3">
     <g id="line2d_3">
      <g>
       <use style="stroke:#000000;stroke-width:0.8;" x="115.798337" xlink:href="#md508bf02bf" y="134.883077"/>
      </g>
     </g>
     <g id="text_3">
      <!-- 40 -->
      <defs>
       <path d="M 32.328125 0 
L 32.328125 17.140625 
L 1.265625 17.140625 
L 1.265625 25.203125 
L 33.9375 71.578125 
L 41.109375 71.578125 
L 41.109375 25.203125 
L 50.78125 25.203125 
L 50.78125 17.140625 
L 41.109375 17.140625 
L 41.109375 0 
z
M 32.328125 25.203125 
L 32.328125 57.46875 
L 9.90625 25.203125 
z
" id="ArialMT-52"/>
      </defs>
      <g transform="translate(111.349587 147.609327)scale(0.08 -0.08)">
       <use xlink:href="#ArialMT-52"/>
       <use x="55.615234" xlink:href="#ArialMT-48"/>
      </g>
     </g>
    </g>
    <g id="xtick_4">
     <g id="line2d_4">
      <g>
       <use style="stroke:#000000;stroke-width:0.8;" x="145.393259" xlink:href="#md508bf02bf" y="134.883077"/>
      </g>
     </g>
     <g id="text_4">
      <!-- 60 -->
      <defs>
       <path d="M 49.75 54.046875 
L 41.015625 53.375 
Q 39.84375 58.546875 37.703125 60.890625 
Q 34.125 64.65625 28.90625 64.65625 
Q 24.703125 64.65625 21.53125 62.3125 
Q 17.390625 59.28125 14.984375 53.46875 
Q 12.59375 47.65625 12.5 36.921875 
Q 15.671875 41.75 20.265625 44.09375 
Q 24.859375 46.4375 29.890625 46.4375 
Q 38.671875 46.4375 44.84375 39.96875 
Q 51.03125 33.5 51.03125 23.25 
Q 51.03125 16.5 48.125 10.71875 
Q 45.21875 4.9375 40.140625 1.859375 
Q 35.0625 -1.21875 28.609375 -1.21875 
Q 17.625 -1.21875 10.6875 6.859375 
Q 3.765625 14.9375 3.765625 33.5 
Q 3.765625 54.25 11.421875 63.671875 
Q 18.109375 71.875 29.4375 71.875 
Q 37.890625 71.875 43.28125 67.140625 
Q 48.6875 62.40625 49.75 54.046875 
z
M 13.875 23.1875 
Q 13.875 18.65625 15.796875 14.5 
Q 17.71875 10.359375 21.1875 8.171875 
Q 24.65625 6 28.46875 6 
Q 34.03125 6 38.03125 10.484375 
Q 42.046875 14.984375 42.046875 22.703125 
Q 42.046875 30.125 38.078125 34.390625 
Q 34.125 38.671875 28.125 38.671875 
Q 22.171875 38.671875 18.015625 34.390625 
Q 13.875 30.125 13.875 23.1875 
z
" id="ArialMT-54"/>
      </defs>
      <g transform="translate(140.944509 147.609327)scale(0.08 -0.08)">
       <use xlink:href="#ArialMT-54"/>
       <use x="55.615234" xlink:href="#ArialMT-48"/>
      </g>
     </g>
    </g>
    <g id="xtick_5">
     <g id="line2d_5">
      <g>
       <use style="stroke:#000000;stroke-width:0.8;" x="174.98818" xlink:href="#md508bf02bf" y="134.883077"/>
      </g>
     </g>
     <g id="text_5">
      <!-- 80 -->
      <defs>
       <path d="M 17.671875 38.8125 
Q 12.203125 40.828125 9.5625 44.53125 
Q 6.9375 48.25 6.9375 53.421875 
Q 6.9375 61.234375 12.546875 66.546875 
Q 18.171875 71.875 27.484375 71.875 
Q 36.859375 71.875 42.578125 66.421875 
Q 48.296875 60.984375 48.296875 53.171875 
Q 48.296875 48.1875 45.671875 44.5 
Q 43.0625 40.828125 37.75 38.8125 
Q 44.34375 36.671875 47.78125 31.875 
Q 51.21875 27.09375 51.21875 20.453125 
Q 51.21875 11.28125 44.71875 5.03125 
Q 38.234375 -1.21875 27.640625 -1.21875 
Q 17.046875 -1.21875 10.546875 5.046875 
Q 4.046875 11.328125 4.046875 20.703125 
Q 4.046875 27.6875 7.59375 32.390625 
Q 11.140625 37.109375 17.671875 38.8125 
z
M 15.921875 53.71875 
Q 15.921875 48.640625 19.1875 45.40625 
Q 22.46875 42.1875 27.6875 42.1875 
Q 32.765625 42.1875 36.015625 45.375 
Q 39.265625 48.578125 39.265625 53.21875 
Q 39.265625 58.0625 35.90625 61.359375 
Q 32.5625 64.65625 27.59375 64.65625 
Q 22.5625 64.65625 19.234375 61.421875 
Q 15.921875 58.203125 15.921875 53.71875 
z
M 13.09375 20.65625 
Q 13.09375 16.890625 14.875 13.375 
Q 16.65625 9.859375 20.171875 7.921875 
Q 23.6875 6 27.734375 6 
Q 34.03125 6 38.125 10.046875 
Q 42.234375 14.109375 42.234375 20.359375 
Q 42.234375 26.703125 38.015625 30.859375 
Q 33.796875 35.015625 27.4375 35.015625 
Q 21.234375 35.015625 17.15625 30.90625 
Q 13.09375 26.8125 13.09375 20.65625 
z
" id="ArialMT-56"/>
      </defs>
      <g transform="translate(170.53943 147.609327)scale(0.08 -0.08)">
       <use xlink:href="#ArialMT-56"/>
       <use x="55.615234" xlink:href="#ArialMT-48"/>
      </g>
     </g>
    </g>
    <g id="xtick_6">
     <g id="line2d_6">
      <g>
       <use style="stroke:#000000;stroke-width:0.8;" x="204.583102" xlink:href="#md508bf02bf" y="134.883077"/>
      </g>
     </g>
     <g id="text_6">
      <!-- 100 -->
      <defs>
       <path d="M 37.25 0 
L 28.46875 0 
L 28.46875 56 
Q 25.296875 52.984375 20.140625 49.953125 
Q 14.984375 46.921875 10.890625 45.40625 
L 10.890625 53.90625 
Q 18.265625 57.375 23.78125 62.296875 
Q 29.296875 67.234375 31.59375 71.875 
L 37.25 71.875 
z
" id="ArialMT-49"/>
      </defs>
      <g transform="translate(197.909977 147.609327)scale(0.08 -0.08)">
       <use xlink:href="#ArialMT-49"/>
       <use x="55.615234" xlink:href="#ArialMT-48"/>
       <use x="111.230469" xlink:href="#ArialMT-48"/>
      </g>
     </g>
    </g>
    <g id="text_7">
     <!-- Round -->
     <defs>
      <path d="M 7.859375 0 
L 7.859375 71.578125 
L 39.59375 71.578125 
Q 49.171875 71.578125 54.140625 69.640625 
Q 59.125 67.71875 62.109375 62.828125 
Q 65.09375 57.953125 65.09375 52.046875 
Q 65.09375 44.4375 60.15625 39.203125 
Q 55.21875 33.984375 44.921875 32.5625 
Q 48.6875 30.765625 50.640625 29 
Q 54.78125 25.203125 58.5 19.484375 
L 70.953125 0 
L 59.03125 0 
L 49.5625 14.890625 
Q 45.40625 21.34375 42.71875 24.75 
Q 40.046875 28.171875 37.921875 29.53125 
Q 35.796875 30.90625 33.59375 31.453125 
Q 31.984375 31.78125 28.328125 31.78125 
L 17.328125 31.78125 
L 17.328125 0 
z
M 17.328125 39.984375 
L 37.703125 39.984375 
Q 44.1875 39.984375 47.84375 41.328125 
Q 51.515625 42.671875 53.421875 45.625 
Q 55.328125 48.578125 55.328125 52.046875 
Q 55.328125 57.125 51.640625 60.390625 
Q 47.953125 63.671875 39.984375 63.671875 
L 17.328125 63.671875 
z
" id="ArialMT-82"/>
      <path d="M 3.328125 25.921875 
Q 3.328125 40.328125 11.328125 47.265625 
Q 18.015625 53.03125 27.640625 53.03125 
Q 38.328125 53.03125 45.109375 46.015625 
Q 51.90625 39.015625 51.90625 26.65625 
Q 51.90625 16.65625 48.90625 10.90625 
Q 45.90625 5.171875 40.15625 2 
Q 34.421875 -1.171875 27.640625 -1.171875 
Q 16.75 -1.171875 10.03125 5.8125 
Q 3.328125 12.796875 3.328125 25.921875 
z
M 12.359375 25.921875 
Q 12.359375 15.96875 16.703125 11.015625 
Q 21.046875 6.0625 27.640625 6.0625 
Q 34.1875 6.0625 38.53125 11.03125 
Q 42.875 16.015625 42.875 26.21875 
Q 42.875 35.84375 38.5 40.796875 
Q 34.125 45.75 27.640625 45.75 
Q 21.046875 45.75 16.703125 40.8125 
Q 12.359375 35.890625 12.359375 25.921875 
z
" id="ArialMT-111"/>
      <path d="M 40.578125 0 
L 40.578125 7.625 
Q 34.515625 -1.171875 24.125 -1.171875 
Q 19.53125 -1.171875 15.546875 0.578125 
Q 11.578125 2.34375 9.640625 5 
Q 7.71875 7.671875 6.9375 11.53125 
Q 6.390625 14.109375 6.390625 19.734375 
L 6.390625 51.859375 
L 15.1875 51.859375 
L 15.1875 23.09375 
Q 15.1875 16.21875 15.71875 13.8125 
Q 16.546875 10.359375 19.234375 8.375 
Q 21.921875 6.390625 25.875 6.390625 
Q 29.828125 6.390625 33.296875 8.421875 
Q 36.765625 10.453125 38.203125 13.9375 
Q 39.65625 17.4375 39.65625 24.078125 
L 39.65625 51.859375 
L 48.4375 51.859375 
L 48.4375 0 
z
" id="ArialMT-117"/>
      <path d="M 6.59375 0 
L 6.59375 51.859375 
L 14.5 51.859375 
L 14.5 44.484375 
Q 20.21875 53.03125 31 53.03125 
Q 35.6875 53.03125 39.625 51.34375 
Q 43.5625 49.65625 45.515625 46.921875 
Q 47.46875 44.1875 48.25 40.4375 
Q 48.734375 37.984375 48.734375 31.890625 
L 48.734375 0 
L 39.9375 0 
L 39.9375 31.546875 
Q 39.9375 36.921875 38.90625 39.578125 
Q 37.890625 42.234375 35.28125 43.8125 
Q 32.671875 45.40625 29.15625 45.40625 
Q 23.53125 45.40625 19.453125 41.84375 
Q 15.375 38.28125 15.375 28.328125 
L 15.375 0 
z
" id="ArialMT-110"/>
      <path d="M 40.234375 0 
L 40.234375 6.546875 
Q 35.296875 -1.171875 25.734375 -1.171875 
Q 19.53125 -1.171875 14.328125 2.25 
Q 9.125 5.671875 6.265625 11.796875 
Q 3.421875 17.921875 3.421875 25.875 
Q 3.421875 33.640625 6 39.96875 
Q 8.59375 46.296875 13.765625 49.65625 
Q 18.953125 53.03125 25.34375 53.03125 
Q 30.03125 53.03125 33.6875 51.046875 
Q 37.359375 49.078125 39.65625 45.90625 
L 39.65625 71.578125 
L 48.390625 71.578125 
L 48.390625 0 
z
M 12.453125 25.875 
Q 12.453125 15.921875 16.640625 10.984375 
Q 20.84375 6.0625 26.5625 6.0625 
Q 32.328125 6.0625 36.34375 10.765625 
Q 40.375 15.484375 40.375 25.140625 
Q 40.375 35.796875 36.265625 40.765625 
Q 32.171875 45.75 26.171875 45.75 
Q 20.3125 45.75 16.375 40.96875 
Q 12.453125 36.1875 12.453125 25.875 
z
" id="ArialMT-100"/>
     </defs>
     <g transform="translate(118.069675 158.925577)scale(0.08 -0.08)">
      <use xlink:href="#ArialMT-82"/>
      <use x="72.216797" xlink:href="#ArialMT-111"/>
      <use x="127.832031" xlink:href="#ArialMT-117"/>
      <use x="183.447266" xlink:href="#ArialMT-110"/>
      <use x="239.0625" xlink:href="#ArialMT-100"/>
     </g>
    </g>
   </g>
   <g id="matplotlib.axis_2">
    <g id="ytick_1">
     <g id="line2d_7">
      <defs>
       <path d="M 0 0 
L -3.5 0 
" id="m65e2d6a159" style="stroke:#000000;stroke-width:0.8;"/>
      </defs>
      <g>
       <use style="stroke:#000000;stroke-width:0.8;" x="49.28375" xlink:href="#m65e2d6a159" y="134.883077"/>
      </g>
     </g>
     <g id="text_8">
      <!-- 0 -->
      <g transform="translate(37.835 137.746202)scale(0.08 -0.08)">
       <use xlink:href="#ArialMT-48"/>
      </g>
     </g>
    </g>
    <g id="ytick_2">
     <g id="line2d_8">
      <g>
       <use style="stroke:#000000;stroke-width:0.8;" x="49.28375" xlink:href="#m65e2d6a159" y="110.210462"/>
      </g>
     </g>
     <g id="text_9">
      <!-- 2000 -->
      <g transform="translate(24.48875 113.073587)scale(0.08 -0.08)">
       <use xlink:href="#ArialMT-50"/>
       <use x="55.615234" xlink:href="#ArialMT-48"/>
       <use x="111.230469" xlink:href="#ArialMT-48"/>
       <use x="166.845703" xlink:href="#ArialMT-48"/>
      </g>
     </g>
    </g>
    <g id="ytick_3">
     <g id="line2d_9">
      <g>
       <use style="stroke:#000000;stroke-width:0.8;" x="49.28375" xlink:href="#m65e2d6a159" y="85.537846"/>
      </g>
     </g>
     <g id="text_10">
      <!-- 4000 -->
      <g transform="translate(24.48875 88.400971)scale(0.08 -0.08)">
       <use xlink:href="#ArialMT-52"/>
       <use x="55.615234" xlink:href="#ArialMT-48"/>
       <use x="111.230469" xlink:href="#ArialMT-48"/>
       <use x="166.845703" xlink:href="#ArialMT-48"/>
      </g>
     </g>
    </g>
    <g id="ytick_4">
     <g id="line2d_10">
      <g>
       <use style="stroke:#000000;stroke-width:0.8;" x="49.28375" xlink:href="#m65e2d6a159" y="60.865231"/>
      </g>
     </g>
     <g id="text_11">
      <!-- 6000 -->
      <g transform="translate(24.48875 63.728356)scale(0.08 -0.08)">
       <use xlink:href="#ArialMT-54"/>
       <use x="55.615234" xlink:href="#ArialMT-48"/>
       <use x="111.230469" xlink:href="#ArialMT-48"/>
       <use x="166.845703" xlink:href="#ArialMT-48"/>
      </g>
     </g>
    </g>
    <g id="ytick_5">
     <g id="line2d_11">
      <g>
       <use style="stroke:#000000;stroke-width:0.8;" x="49.28375" xlink:href="#m65e2d6a159" y="36.192615"/>
      </g>
     </g>
     <g id="text_12">
      <!-- 8000 -->
      <g transform="translate(24.48875 39.05574)scale(0.08 -0.08)">
       <use xlink:href="#ArialMT-56"/>
       <use x="55.615234" xlink:href="#ArialMT-48"/>
       <use x="111.230469" xlink:href="#ArialMT-48"/>
       <use x="166.845703" xlink:href="#ArialMT-48"/>
      </g>
     </g>
    </g>
    <g id="ytick_6">
     <g id="line2d_12">
      <g>
       <use style="stroke:#000000;stroke-width:0.8;" x="49.28375" xlink:href="#m65e2d6a159" y="11.52"/>
      </g>
     </g>
     <g id="text_13">
      <!-- 10000 -->
      <g transform="translate(20.04 14.383125)scale(0.08 -0.08)">
       <use xlink:href="#ArialMT-49"/>
       <use x="55.615234" xlink:href="#ArialMT-48"/>
       <use x="111.230469" xlink:href="#ArialMT-48"/>
       <use x="166.845703" xlink:href="#ArialMT-48"/>
       <use x="222.460938" xlink:href="#ArialMT-48"/>
      </g>
     </g>
    </g>
    <g id="text_14">
     <!-- Optimum -->
     <defs>
      <path d="M 4.828125 34.859375 
Q 4.828125 52.6875 14.390625 62.765625 
Q 23.96875 72.859375 39.109375 72.859375 
Q 49.03125 72.859375 56.984375 68.109375 
Q 64.9375 63.375 69.109375 54.90625 
Q 73.296875 46.4375 73.296875 35.6875 
Q 73.296875 24.8125 68.890625 16.21875 
Q 64.5 7.625 56.4375 3.203125 
Q 48.390625 -1.21875 39.0625 -1.21875 
Q 28.953125 -1.21875 20.984375 3.65625 
Q 13.03125 8.546875 8.921875 16.984375 
Q 4.828125 25.4375 4.828125 34.859375 
z
M 14.59375 34.71875 
Q 14.59375 21.78125 21.546875 14.328125 
Q 28.515625 6.890625 39.015625 6.890625 
Q 49.703125 6.890625 56.609375 14.40625 
Q 63.53125 21.921875 63.53125 35.75 
Q 63.53125 44.484375 60.578125 51 
Q 57.625 57.515625 51.921875 61.109375 
Q 46.234375 64.703125 39.15625 64.703125 
Q 29.109375 64.703125 21.84375 57.78125 
Q 14.59375 50.875 14.59375 34.71875 
z
" id="ArialMT-79"/>
      <path d="M 6.59375 -19.875 
L 6.59375 51.859375 
L 14.59375 51.859375 
L 14.59375 45.125 
Q 17.4375 49.078125 21 51.046875 
Q 24.5625 53.03125 29.640625 53.03125 
Q 36.28125 53.03125 41.359375 49.609375 
Q 46.4375 46.1875 49.015625 39.953125 
Q 51.609375 33.734375 51.609375 26.3125 
Q 51.609375 18.359375 48.75 11.984375 
Q 45.90625 5.609375 40.453125 2.21875 
Q 35.015625 -1.171875 29 -1.171875 
Q 24.609375 -1.171875 21.109375 0.6875 
Q 17.625 2.546875 15.375 5.375 
L 15.375 -19.875 
z
M 14.546875 25.640625 
Q 14.546875 15.625 18.59375 10.84375 
Q 22.65625 6.0625 28.421875 6.0625 
Q 34.28125 6.0625 38.453125 11.015625 
Q 42.625 15.96875 42.625 26.375 
Q 42.625 36.28125 38.546875 41.203125 
Q 34.46875 46.140625 28.8125 46.140625 
Q 23.1875 46.140625 18.859375 40.890625 
Q 14.546875 35.640625 14.546875 25.640625 
z
" id="ArialMT-112"/>
      <path d="M 25.78125 7.859375 
L 27.046875 0.09375 
Q 23.34375 -0.6875 20.40625 -0.6875 
Q 15.625 -0.6875 12.984375 0.828125 
Q 10.359375 2.34375 9.28125 4.8125 
Q 8.203125 7.28125 8.203125 15.1875 
L 8.203125 45.015625 
L 1.765625 45.015625 
L 1.765625 51.859375 
L 8.203125 51.859375 
L 8.203125 64.703125 
L 16.9375 69.96875 
L 16.9375 51.859375 
L 25.78125 51.859375 
L 25.78125 45.015625 
L 16.9375 45.015625 
L 16.9375 14.703125 
Q 16.9375 10.9375 17.40625 9.859375 
Q 17.875 8.796875 18.921875 8.15625 
Q 19.96875 7.515625 21.921875 7.515625 
Q 23.390625 7.515625 25.78125 7.859375 
z
" id="ArialMT-116"/>
      <path d="M 6.640625 61.46875 
L 6.640625 71.578125 
L 15.4375 71.578125 
L 15.4375 61.46875 
z
M 6.640625 0 
L 6.640625 51.859375 
L 15.4375 51.859375 
L 15.4375 0 
z
" id="ArialMT-105"/>
      <path d="M 6.59375 0 
L 6.59375 51.859375 
L 14.453125 51.859375 
L 14.453125 44.578125 
Q 16.890625 48.390625 20.9375 50.703125 
Q 25 53.03125 30.171875 53.03125 
Q 35.9375 53.03125 39.625 50.640625 
Q 43.3125 48.25 44.828125 43.953125 
Q 50.984375 53.03125 60.84375 53.03125 
Q 68.5625 53.03125 72.703125 48.75 
Q 76.859375 44.484375 76.859375 35.59375 
L 76.859375 0 
L 68.109375 0 
L 68.109375 32.671875 
Q 68.109375 37.9375 67.25 40.25 
Q 66.40625 42.578125 64.15625 43.984375 
Q 61.921875 45.40625 58.890625 45.40625 
Q 53.421875 45.40625 49.796875 41.765625 
Q 46.1875 38.140625 46.1875 30.125 
L 46.1875 0 
L 37.40625 0 
L 37.40625 33.6875 
Q 37.40625 39.546875 35.25 42.46875 
Q 33.109375 45.40625 28.21875 45.40625 
Q 24.515625 45.40625 21.359375 43.453125 
Q 18.21875 41.5 16.796875 37.734375 
Q 15.375 33.984375 15.375 26.90625 
L 15.375 0 
z
" id="ArialMT-109"/>
     </defs>
     <g transform="translate(14.45 89.425288)rotate(-90)scale(0.08 -0.08)">
      <use xlink:href="#ArialMT-79"/>
      <use x="77.783203" xlink:href="#ArialMT-112"/>
      <use x="133.398438" xlink:href="#ArialMT-116"/>
      <use x="161.181641" xlink:href="#ArialMT-105"/>
      <use x="183.398438" xlink:href="#ArialMT-109"/>
      <use x="266.699219" xlink:href="#ArialMT-117"/>
      <use x="322.314453" xlink:href="#ArialMT-109"/>
     </g>
    </g>
   </g>
   <g id="line2d_13">
    <path clip-path="url(#p4e9f177380)" d="M 56.608493 28.471703 
L 58.088239 49.294154 
L 59.567985 62.610004 
L 61.047731 74.876734 
L 62.527478 76.823524 
L 64.007224 83.079085 
L 65.48697 87.743305 
L 66.966716 94.956698 
L 68.446462 95.472587 
L 69.926208 98.88398 
L 71.405954 99.874401 
L 72.8857 101.702747 
L 74.365446 103.916011 
L 75.845192 105.326718 
L 77.324938 107.261936 
L 78.804684 108.616426 
L 80.284431 109.203599 
L 81.764177 110.394707 
L 83.243923 111.267193 
L 84.723669 113.094612 
L 86.203415 115.997821 
L 87.683161 117.471829 
L 89.162907 117.858193 
L 90.642653 118.092834 
L 92.122399 119.309883 
L 93.602145 120.635414 
L 95.081891 121.050489 
L 96.561638 121.458195 
L 98.041384 122.869009 
L 99.52113 122.869009 
L 101.000876 125.396473 
L 102.480622 125.396473 
L 103.960368 125.709358 
L 105.440114 125.769884 
L 106.91986 125.997883 
L 108.399606 126.669347 
L 109.879352 126.772346 
L 111.359098 126.772346 
L 112.838845 127.106289 
L 114.318591 127.539136 
L 115.798337 127.539136 
L 117.278083 128.06352 
L 118.757829 128.84995 
L 120.237575 129.412757 
L 121.717321 129.520058 
L 123.197067 130.604859 
L 124.676813 130.766729 
L 126.156559 131.861659 
L 127.636305 134.277274 
L 129.116052 135.478997 
L 130.595798 135.944706 
L 132.075544 135.947037 
L 133.55529 136.661209 
L 135.035036 136.661209 
L 136.514782 136.661209 
L 137.994528 138.668236 
L 139.474274 138.668236 
L 140.95402 139.143749 
L 142.433766 139.773434 
L 143.913512 139.773434 
L 145.393259 140.089385 
L 146.873005 140.112737 
L 148.352751 140.112737 
L 149.832497 140.979316 
L 151.312243 141.217467 
L 152.791989 141.304556 
L 154.271735 141.304556 
L 155.751481 141.304556 
L 157.231227 142.847705 
L 158.710973 143.050752 
L 160.190719 143.050752 
L 161.670466 143.050752 
L 163.150212 143.050752 
L 164.629958 143.050752 
L 166.109704 143.050752 
L 167.58945 143.313706 
L 169.069196 143.313706 
L 170.548942 143.313706 
L 172.028688 143.313706 
L 173.508434 143.383992 
L 174.98818 143.447296 
L 176.467926 143.447296 
L 177.947673 143.447296 
L 179.427419 143.872565 
L 180.907165 143.872565 
L 182.386911 144.124801 
L 183.866657 144.357555 
L 185.346403 144.614486 
L 186.826149 144.614486 
L 188.305895 144.773547 
L 189.785641 144.773547 
L 191.265387 144.773547 
L 192.745133 145.573121 
L 194.224879 145.573121 
L 195.704626 145.746651 
L 197.184372 145.746651 
L 198.664118 145.746651 
L 200.143864 145.818059 
L 201.62361 145.818059 
L 203.103356 145.818059 
" style="fill:none;stroke:#ff7f0e;stroke-linecap:square;stroke-width:1.5;"/>
   </g>
   <g id="patch_3">
    <path d="M 49.28375 134.883077 
L 49.28375 11.52 
" style="fill:none;stroke:#000000;stroke-linecap:square;stroke-linejoin:miter;stroke-width:0.8;"/>
   </g>
   <g id="patch_4">
    <path d="M 210.428099 134.883077 
L 210.428099 11.52 
" style="fill:none;stroke:#000000;stroke-linecap:square;stroke-linejoin:miter;stroke-width:0.8;"/>
   </g>
   <g id="patch_5">
    <path d="M 49.28375 134.883077 
L 210.428099 134.883077 
" style="fill:none;stroke:#000000;stroke-linecap:square;stroke-linejoin:miter;stroke-width:0.8;"/>
   </g>
   <g id="patch_6">
    <path d="M 49.28375 11.52 
L 210.428099 11.52 
" style="fill:none;stroke:#000000;stroke-linecap:square;stroke-linejoin:miter;stroke-width:0.8;"/>
   </g>
  </g>
 </g>
 <defs>
  <clipPath id="p4e9f177380">
   <rect height="123.363077" width="161.144349" x="49.28375" y="11.52"/>
  </clipPath>
 </defs>
</svg>
