<?xml version="1.0" encoding="utf-8" standalone="no"?>
<!DOCTYPE svg PUBLIC "-//W3C//DTD SVG 1.1//EN"
  "http://www.w3.org/Graphics/SVG/1.1/DTD/svg11.dtd">
<!-- Created with matplotlib (https://matplotlib.org/) -->
<svg height="168.923077pt" version="1.1" viewBox="0 0 219.6 168.923077" width="219.6pt" xmlns="http://www.w3.org/2000/svg" xmlns:xlink="http://www.w3.org/1999/xlink">
 <defs>
  <style type="text/css">
*{stroke-linecap:butt;stroke-linejoin:round;}
  </style>
 </defs>
 <g id="figure_1">
  <g id="patch_1">
   <path d="M 0 168.923077 
L 219.6 168.923077 
L 219.6 0 
L 0 0 
z
" style="fill:none;"/>
  </g>
  <g id="axes_1">
   <g id="patch_2">
    <path d="M 38.12375 134.883077 
L 210.428099 134.883077 
L 210.428099 11.52 
L 38.12375 11.52 
z
" style="fill:none;"/>
   </g>
   <g id="PolyCollection_1">
    <defs>
     <path d="M 45.955766 -117.075304 
L 45.955766 -92.574873 
L 47.537991 -91.918118 
L 49.120217 -87.541991 
L 50.702442 -88.048125 
L 52.284668 -85.612429 
L 53.866893 -82.358626 
L 55.449118 -81.289542 
L 57.031344 -81.027708 
L 58.613569 -79.044043 
L 60.195795 -76.094121 
L 61.77802 -72.082246 
L 63.360246 -70.190748 
L 64.942471 -66.43135 
L 66.524696 -66.399222 
L 68.106922 -64.001719 
L 69.689147 -62.510815 
L 71.271373 -63.595986 
L 72.853598 -61.873918 
L 74.435824 -62.460033 
L 76.018049 -61.048748 
L 77.600274 -61.30282 
L 79.1825 -60.890002 
L 80.764725 -61.682688 
L 82.346951 -61.62466 
L 83.929176 -61.344535 
L 85.511402 -60.477927 
L 87.093627 -60.403265 
L 88.675852 -61.21056 
L 90.258078 -60.830922 
L 91.840303 -59.847531 
L 93.422529 -59.580741 
L 95.004754 -60.183763 
L 96.58698 -60.190822 
L 98.169205 -54.213793 
L 99.75143 -53.917891 
L 101.333656 -54.516209 
L 102.915881 -54.596527 
L 104.498107 -54.837293 
L 106.080332 -54.49589 
L 107.662558 -54.865894 
L 109.244783 -53.685645 
L 110.827008 -53.956342 
L 112.409234 -54.035017 
L 113.991459 -54.715946 
L 115.573685 -54.072586 
L 117.15591 -53.803969 
L 118.738136 -53.555812 
L 120.320361 -53.952927 
L 121.902586 -53.093928 
L 123.484812 -53.022989 
L 125.067037 -52.418655 
L 126.649263 -52.772861 
L 128.231488 -53.272872 
L 129.813714 -53.579328 
L 131.395939 -54.176555 
L 132.978164 -53.915813 
L 134.56039 -53.189172 
L 136.142615 -54.184962 
L 137.724841 -54.467548 
L 139.307066 -53.485258 
L 140.889292 -53.737716 
L 142.471517 -53.908143 
L 144.053742 -53.573191 
L 145.635968 -53.664698 
L 147.218193 -53.712186 
L 148.800419 -51.420056 
L 150.382644 -51.077448 
L 151.96487 -51.496626 
L 153.547095 -50.980449 
L 155.12932 -51.031705 
L 156.711546 -50.771523 
L 158.293771 -50.545963 
L 159.875997 -50.565939 
L 161.458222 -50.255331 
L 163.040448 -50.609506 
L 164.622673 -51.3339 
L 166.204898 -50.549788 
L 167.787124 -51.005357 
L 169.369349 -50.357253 
L 170.951575 -51.095419 
L 172.5338 -50.687312 
L 174.116026 -49.487861 
L 175.698251 -50.960115 
L 177.280476 -49.641409 
L 178.862702 -50.310438 
L 180.444927 -50.062928 
L 182.027153 -50.465674 
L 183.609378 -49.375802 
L 185.191604 -49.921452 
L 186.773829 -50.034223 
L 188.356054 -49.912462 
L 189.93828 -49.7883 
L 191.520505 -49.228399 
L 193.102731 -49.205325 
L 194.684956 -49.714936 
L 196.267182 -49.621279 
L 197.849407 -49.81684 
L 199.431632 -49.584523 
L 201.013858 -49.195945 
L 202.596083 -48.953172 
L 202.596083 -70.118517 
L 202.596083 -70.118517 
L 201.013858 -69.764586 
L 199.431632 -70.34517 
L 197.849407 -70.463032 
L 196.267182 -70.295581 
L 194.684956 -69.623699 
L 193.102731 -70.016492 
L 191.520505 -70.754279 
L 189.93828 -70.522452 
L 188.356054 -70.072983 
L 186.773829 -70.677259 
L 185.191604 -70.492356 
L 183.609378 -70.102914 
L 182.027153 -70.786165 
L 180.444927 -70.574446 
L 178.862702 -71.183104 
L 177.280476 -70.496475 
L 175.698251 -70.209795 
L 174.116026 -70.882684 
L 172.5338 -70.770746 
L 170.951575 -71.129536 
L 169.369349 -71.12708 
L 167.787124 -71.106804 
L 166.204898 -71.008114 
L 164.622673 -71.45714 
L 163.040448 -71.675051 
L 161.458222 -71.492583 
L 159.875997 -72.723928 
L 158.293771 -70.805671 
L 156.711546 -71.036073 
L 155.12932 -71.603048 
L 153.547095 -71.477068 
L 151.96487 -71.426312 
L 150.382644 -71.848366 
L 148.800419 -71.857207 
L 147.218193 -75.433327 
L 145.635968 -75.413638 
L 144.053742 -74.308094 
L 142.471517 -74.714331 
L 140.889292 -74.471222 
L 139.307066 -74.928537 
L 137.724841 -75.085771 
L 136.142615 -75.353702 
L 134.56039 -73.629224 
L 132.978164 -75.910448 
L 131.395939 -74.697314 
L 129.813714 -74.832013 
L 128.231488 -74.676648 
L 126.649263 -73.967073 
L 125.067037 -74.269842 
L 123.484812 -74.456817 
L 121.902586 -74.131985 
L 120.320361 -74.886401 
L 118.738136 -75.326362 
L 117.15591 -75.238696 
L 115.573685 -75.358421 
L 113.991459 -75.51565 
L 112.409234 -75.701126 
L 110.827008 -75.157213 
L 109.244783 -74.534043 
L 107.662558 -76.437817 
L 106.080332 -74.908369 
L 104.498107 -75.677339 
L 102.915881 -75.167832 
L 101.333656 -75.429068 
L 99.75143 -74.724743 
L 98.169205 -75.218016 
L 96.58698 -86.068557 
L 95.004754 -84.358539 
L 93.422529 -84.190067 
L 91.840303 -84.687642 
L 90.258078 -84.027611 
L 88.675852 -85.432199 
L 87.093627 -84.197279 
L 85.511402 -85.287585 
L 83.929176 -85.695257 
L 82.346951 -86.763019 
L 80.764725 -85.409089 
L 79.1825 -86.580019 
L 77.600274 -84.599483 
L 76.018049 -85.221428 
L 74.435824 -86.558826 
L 72.853598 -86.064887 
L 71.271373 -86.138775 
L 69.689147 -85.902622 
L 68.106922 -88.273457 
L 66.524696 -93.317204 
L 64.942471 -92.926115 
L 63.360246 -96.511305 
L 61.77802 -97.549793 
L 60.195795 -103.906244 
L 58.613569 -104.771314 
L 57.031344 -107.592642 
L 55.449118 -107.204019 
L 53.866893 -108.390064 
L 52.284668 -113.299789 
L 50.702442 -114.115074 
L 49.120217 -114.765736 
L 47.537991 -116.333647 
L 45.955766 -117.075304 
z
" id="m8faa30e2e5" style="stroke:#d62728;stroke-opacity:0.2;"/>
    </defs>
    <g clip-path="url(#p94c46c80da)">
     <use style="fill:#d62728;fill-opacity:0.2;stroke:#d62728;stroke-opacity:0.2;" x="0" xlink:href="#m8faa30e2e5" y="168.923077"/>
    </g>
   </g>
   <g id="matplotlib.axis_1">
    <g id="xtick_1">
     <g id="line2d_1">
      <defs>
       <path d="M 0 0 
L 0 3.5 
" id="m5bfde82407" style="stroke:#000000;stroke-width:0.8;"/>
      </defs>
      <g>
       <use style="stroke:#000000;stroke-width:0.8;" x="45.955766" xlink:href="#m5bfde82407" y="134.883077"/>
      </g>
     </g>
     <g id="text_1">
      <!-- 0 -->
      <defs>
       <path d="M 4.15625 35.296875 
Q 4.15625 48 6.765625 55.734375 
Q 9.375 63.484375 14.515625 67.671875 
Q 19.671875 71.875 27.484375 71.875 
Q 33.25 71.875 37.59375 69.546875 
Q 41.9375 67.234375 44.765625 62.859375 
Q 47.609375 58.5 49.21875 52.21875 
Q 50.828125 45.953125 50.828125 35.296875 
Q 50.828125 22.703125 48.234375 14.96875 
Q 45.65625 7.234375 40.5 3 
Q 35.359375 -1.21875 27.484375 -1.21875 
Q 17.140625 -1.21875 11.234375 6.203125 
Q 4.15625 15.140625 4.15625 35.296875 
z
M 13.1875 35.296875 
Q 13.1875 17.671875 17.3125 11.828125 
Q 21.4375 6 27.484375 6 
Q 33.546875 6 37.671875 11.859375 
Q 41.796875 17.71875 41.796875 35.296875 
Q 41.796875 52.984375 37.671875 58.78125 
Q 33.546875 64.59375 27.390625 64.59375 
Q 21.34375 64.59375 17.71875 59.46875 
Q 13.1875 52.9375 13.1875 35.296875 
z
" id="ArialMT-48"/>
      </defs>
      <g transform="translate(43.731391 147.609327)scale(0.08 -0.08)">
       <use xlink:href="#ArialMT-48"/>
      </g>
     </g>
    </g>
    <g id="xtick_2">
     <g id="line2d_2">
      <g>
       <use style="stroke:#000000;stroke-width:0.8;" x="77.600274" xlink:href="#m5bfde82407" y="134.883077"/>
      </g>
     </g>
     <g id="text_2">
      <!-- 20 -->
      <defs>
       <path d="M 50.34375 8.453125 
L 50.34375 0 
L 3.03125 0 
Q 2.9375 3.171875 4.046875 6.109375 
Q 5.859375 10.9375 9.828125 15.625 
Q 13.8125 20.3125 21.34375 26.46875 
Q 33.015625 36.03125 37.109375 41.625 
Q 41.21875 47.21875 41.21875 52.203125 
Q 41.21875 57.421875 37.46875 61 
Q 33.734375 64.59375 27.734375 64.59375 
Q 21.390625 64.59375 17.578125 60.78125 
Q 13.765625 56.984375 13.71875 50.25 
L 4.6875 51.171875 
Q 5.609375 61.28125 11.65625 66.578125 
Q 17.71875 71.875 27.9375 71.875 
Q 38.234375 71.875 44.234375 66.15625 
Q 50.25 60.453125 50.25 52 
Q 50.25 47.703125 48.484375 43.546875 
Q 46.734375 39.40625 42.65625 34.8125 
Q 38.578125 30.21875 29.109375 22.21875 
Q 21.1875 15.578125 18.9375 13.203125 
Q 16.703125 10.84375 15.234375 8.453125 
z
" id="ArialMT-50"/>
      </defs>
      <g transform="translate(73.151524 147.609327)scale(0.08 -0.08)">
       <use xlink:href="#ArialMT-50"/>
       <use x="55.615234" xlink:href="#ArialMT-48"/>
      </g>
     </g>
    </g>
    <g id="xtick_3">
     <g id="line2d_3">
      <g>
       <use style="stroke:#000000;stroke-width:0.8;" x="109.244783" xlink:href="#m5bfde82407" y="134.883077"/>
      </g>
     </g>
     <g id="text_3">
      <!-- 40 -->
      <defs>
       <path d="M 32.328125 0 
L 32.328125 17.140625 
L 1.265625 17.140625 
L 1.265625 25.203125 
L 33.9375 71.578125 
L 41.109375 71.578125 
L 41.109375 25.203125 
L 50.78125 25.203125 
L 50.78125 17.140625 
L 41.109375 17.140625 
L 41.109375 0 
z
M 32.328125 25.203125 
L 32.328125 57.46875 
L 9.90625 25.203125 
z
" id="ArialMT-52"/>
      </defs>
      <g transform="translate(104.796033 147.609327)scale(0.08 -0.08)">
       <use xlink:href="#ArialMT-52"/>
       <use x="55.615234" xlink:href="#ArialMT-48"/>
      </g>
     </g>
    </g>
    <g id="xtick_4">
     <g id="line2d_4">
      <g>
       <use style="stroke:#000000;stroke-width:0.8;" x="140.889292" xlink:href="#m5bfde82407" y="134.883077"/>
      </g>
     </g>
     <g id="text_4">
      <!-- 60 -->
      <defs>
       <path d="M 49.75 54.046875 
L 41.015625 53.375 
Q 39.84375 58.546875 37.703125 60.890625 
Q 34.125 64.65625 28.90625 64.65625 
Q 24.703125 64.65625 21.53125 62.3125 
Q 17.390625 59.28125 14.984375 53.46875 
Q 12.59375 47.65625 12.5 36.921875 
Q 15.671875 41.75 20.265625 44.09375 
Q 24.859375 46.4375 29.890625 46.4375 
Q 38.671875 46.4375 44.84375 39.96875 
Q 51.03125 33.5 51.03125 23.25 
Q 51.03125 16.5 48.125 10.71875 
Q 45.21875 4.9375 40.140625 1.859375 
Q 35.0625 -1.21875 28.609375 -1.21875 
Q 17.625 -1.21875 10.6875 6.859375 
Q 3.765625 14.9375 3.765625 33.5 
Q 3.765625 54.25 11.421875 63.671875 
Q 18.109375 71.875 29.4375 71.875 
Q 37.890625 71.875 43.28125 67.140625 
Q 48.6875 62.40625 49.75 54.046875 
z
M 13.875 23.1875 
Q 13.875 18.65625 15.796875 14.5 
Q 17.71875 10.359375 21.1875 8.171875 
Q 24.65625 6 28.46875 6 
Q 34.03125 6 38.03125 10.484375 
Q 42.046875 14.984375 42.046875 22.703125 
Q 42.046875 30.125 38.078125 34.390625 
Q 34.125 38.671875 28.125 38.671875 
Q 22.171875 38.671875 18.015625 34.390625 
Q 13.875 30.125 13.875 23.1875 
z
" id="ArialMT-54"/>
      </defs>
      <g transform="translate(136.440542 147.609327)scale(0.08 -0.08)">
       <use xlink:href="#ArialMT-54"/>
       <use x="55.615234" xlink:href="#ArialMT-48"/>
      </g>
     </g>
    </g>
    <g id="xtick_5">
     <g id="line2d_5">
      <g>
       <use style="stroke:#000000;stroke-width:0.8;" x="172.5338" xlink:href="#m5bfde82407" y="134.883077"/>
      </g>
     </g>
     <g id="text_5">
      <!-- 80 -->
      <defs>
       <path d="M 17.671875 38.8125 
Q 12.203125 40.828125 9.5625 44.53125 
Q 6.9375 48.25 6.9375 53.421875 
Q 6.9375 61.234375 12.546875 66.546875 
Q 18.171875 71.875 27.484375 71.875 
Q 36.859375 71.875 42.578125 66.421875 
Q 48.296875 60.984375 48.296875 53.171875 
Q 48.296875 48.1875 45.671875 44.5 
Q 43.0625 40.828125 37.75 38.8125 
Q 44.34375 36.671875 47.78125 31.875 
Q 51.21875 27.09375 51.21875 20.453125 
Q 51.21875 11.28125 44.71875 5.03125 
Q 38.234375 -1.21875 27.640625 -1.21875 
Q 17.046875 -1.21875 10.546875 5.046875 
Q 4.046875 11.328125 4.046875 20.703125 
Q 4.046875 27.6875 7.59375 32.390625 
Q 11.140625 37.109375 17.671875 38.8125 
z
M 15.921875 53.71875 
Q 15.921875 48.640625 19.1875 45.40625 
Q 22.46875 42.1875 27.6875 42.1875 
Q 32.765625 42.1875 36.015625 45.375 
Q 39.265625 48.578125 39.265625 53.21875 
Q 39.265625 58.0625 35.90625 61.359375 
Q 32.5625 64.65625 27.59375 64.65625 
Q 22.5625 64.65625 19.234375 61.421875 
Q 15.921875 58.203125 15.921875 53.71875 
z
M 13.09375 20.65625 
Q 13.09375 16.890625 14.875 13.375 
Q 16.65625 9.859375 20.171875 7.921875 
Q 23.6875 6 27.734375 6 
Q 34.03125 6 38.125 10.046875 
Q 42.234375 14.109375 42.234375 20.359375 
Q 42.234375 26.703125 38.015625 30.859375 
Q 33.796875 35.015625 27.4375 35.015625 
Q 21.234375 35.015625 17.15625 30.90625 
Q 13.09375 26.8125 13.09375 20.65625 
z
" id="ArialMT-56"/>
      </defs>
      <g transform="translate(168.08505 147.609327)scale(0.08 -0.08)">
       <use xlink:href="#ArialMT-56"/>
       <use x="55.615234" xlink:href="#ArialMT-48"/>
      </g>
     </g>
    </g>
    <g id="xtick_6">
     <g id="line2d_6">
      <g>
       <use style="stroke:#000000;stroke-width:0.8;" x="204.178309" xlink:href="#m5bfde82407" y="134.883077"/>
      </g>
     </g>
     <g id="text_6">
      <!-- 100 -->
      <defs>
       <path d="M 37.25 0 
L 28.46875 0 
L 28.46875 56 
Q 25.296875 52.984375 20.140625 49.953125 
Q 14.984375 46.921875 10.890625 45.40625 
L 10.890625 53.90625 
Q 18.265625 57.375 23.78125 62.296875 
Q 29.296875 67.234375 31.59375 71.875 
L 37.25 71.875 
z
" id="ArialMT-49"/>
      </defs>
      <g transform="translate(197.505184 147.609327)scale(0.08 -0.08)">
       <use xlink:href="#ArialMT-49"/>
       <use x="55.615234" xlink:href="#ArialMT-48"/>
       <use x="111.230469" xlink:href="#ArialMT-48"/>
      </g>
     </g>
    </g>
    <g id="text_7">
     <!-- Round -->
     <defs>
      <path d="M 7.859375 0 
L 7.859375 71.578125 
L 39.59375 71.578125 
Q 49.171875 71.578125 54.140625 69.640625 
Q 59.125 67.71875 62.109375 62.828125 
Q 65.09375 57.953125 65.09375 52.046875 
Q 65.09375 44.4375 60.15625 39.203125 
Q 55.21875 33.984375 44.921875 32.5625 
Q 48.6875 30.765625 50.640625 29 
Q 54.78125 25.203125 58.5 19.484375 
L 70.953125 0 
L 59.03125 0 
L 49.5625 14.890625 
Q 45.40625 21.34375 42.71875 24.75 
Q 40.046875 28.171875 37.921875 29.53125 
Q 35.796875 30.90625 33.59375 31.453125 
Q 31.984375 31.78125 28.328125 31.78125 
L 17.328125 31.78125 
L 17.328125 0 
z
M 17.328125 39.984375 
L 37.703125 39.984375 
Q 44.1875 39.984375 47.84375 41.328125 
Q 51.515625 42.671875 53.421875 45.625 
Q 55.328125 48.578125 55.328125 52.046875 
Q 55.328125 57.125 51.640625 60.390625 
Q 47.953125 63.671875 39.984375 63.671875 
L 17.328125 63.671875 
z
" id="ArialMT-82"/>
      <path d="M 3.328125 25.921875 
Q 3.328125 40.328125 11.328125 47.265625 
Q 18.015625 53.03125 27.640625 53.03125 
Q 38.328125 53.03125 45.109375 46.015625 
Q 51.90625 39.015625 51.90625 26.65625 
Q 51.90625 16.65625 48.90625 10.90625 
Q 45.90625 5.171875 40.15625 2 
Q 34.421875 -1.171875 27.640625 -1.171875 
Q 16.75 -1.171875 10.03125 5.8125 
Q 3.328125 12.796875 3.328125 25.921875 
z
M 12.359375 25.921875 
Q 12.359375 15.96875 16.703125 11.015625 
Q 21.046875 6.0625 27.640625 6.0625 
Q 34.1875 6.0625 38.53125 11.03125 
Q 42.875 16.015625 42.875 26.21875 
Q 42.875 35.84375 38.5 40.796875 
Q 34.125 45.75 27.640625 45.75 
Q 21.046875 45.75 16.703125 40.8125 
Q 12.359375 35.890625 12.359375 25.921875 
z
" id="ArialMT-111"/>
      <path d="M 40.578125 0 
L 40.578125 7.625 
Q 34.515625 -1.171875 24.125 -1.171875 
Q 19.53125 -1.171875 15.546875 0.578125 
Q 11.578125 2.34375 9.640625 5 
Q 7.71875 7.671875 6.9375 11.53125 
Q 6.390625 14.109375 6.390625 19.734375 
L 6.390625 51.859375 
L 15.1875 51.859375 
L 15.1875 23.09375 
Q 15.1875 16.21875 15.71875 13.8125 
Q 16.546875 10.359375 19.234375 8.375 
Q 21.921875 6.390625 25.875 6.390625 
Q 29.828125 6.390625 33.296875 8.421875 
Q 36.765625 10.453125 38.203125 13.9375 
Q 39.65625 17.4375 39.65625 24.078125 
L 39.65625 51.859375 
L 48.4375 51.859375 
L 48.4375 0 
z
" id="ArialMT-117"/>
      <path d="M 6.59375 0 
L 6.59375 51.859375 
L 14.5 51.859375 
L 14.5 44.484375 
Q 20.21875 53.03125 31 53.03125 
Q 35.6875 53.03125 39.625 51.34375 
Q 43.5625 49.65625 45.515625 46.921875 
Q 47.46875 44.1875 48.25 40.4375 
Q 48.734375 37.984375 48.734375 31.890625 
L 48.734375 0 
L 39.9375 0 
L 39.9375 31.546875 
Q 39.9375 36.921875 38.90625 39.578125 
Q 37.890625 42.234375 35.28125 43.8125 
Q 32.671875 45.40625 29.15625 45.40625 
Q 23.53125 45.40625 19.453125 41.84375 
Q 15.375 38.28125 15.375 28.328125 
L 15.375 0 
z
" id="ArialMT-110"/>
      <path d="M 40.234375 0 
L 40.234375 6.546875 
Q 35.296875 -1.171875 25.734375 -1.171875 
Q 19.53125 -1.171875 14.328125 2.25 
Q 9.125 5.671875 6.265625 11.796875 
Q 3.421875 17.921875 3.421875 25.875 
Q 3.421875 33.640625 6 39.96875 
Q 8.59375 46.296875 13.765625 49.65625 
Q 18.953125 53.03125 25.34375 53.03125 
Q 30.03125 53.03125 33.6875 51.046875 
Q 37.359375 49.078125 39.65625 45.90625 
L 39.65625 71.578125 
L 48.390625 71.578125 
L 48.390625 0 
z
M 12.453125 25.875 
Q 12.453125 15.921875 16.640625 10.984375 
Q 20.84375 6.0625 26.5625 6.0625 
Q 32.328125 6.0625 36.34375 10.765625 
Q 40.375 15.484375 40.375 25.140625 
Q 40.375 35.796875 36.265625 40.765625 
Q 32.171875 45.75 26.171875 45.75 
Q 20.3125 45.75 16.375 40.96875 
Q 12.453125 36.1875 12.453125 25.875 
z
" id="ArialMT-100"/>
     </defs>
     <g transform="translate(112.489675 158.925577)scale(0.08 -0.08)">
      <use xlink:href="#ArialMT-82"/>
      <use x="72.216797" xlink:href="#ArialMT-111"/>
      <use x="127.832031" xlink:href="#ArialMT-117"/>
      <use x="183.447266" xlink:href="#ArialMT-110"/>
      <use x="239.0625" xlink:href="#ArialMT-100"/>
     </g>
    </g>
   </g>
   <g id="matplotlib.axis_2">
    <g id="ytick_1">
     <g id="line2d_7">
      <defs>
       <path d="M 0 0 
L -3.5 0 
" id="m2539f6623f" style="stroke:#000000;stroke-width:0.8;"/>
      </defs>
      <g>
       <use style="stroke:#000000;stroke-width:0.8;" x="38.12375" xlink:href="#m2539f6623f" y="134.883077"/>
      </g>
     </g>
     <g id="text_8">
      <!-- 0.0 -->
      <defs>
       <path d="M 9.078125 0 
L 9.078125 10.015625 
L 19.09375 10.015625 
L 19.09375 0 
z
" id="ArialMT-46"/>
      </defs>
      <g transform="translate(20.00375 137.746202)scale(0.08 -0.08)">
       <use xlink:href="#ArialMT-48"/>
       <use x="55.615234" xlink:href="#ArialMT-46"/>
       <use x="83.398438" xlink:href="#ArialMT-48"/>
      </g>
     </g>
    </g>
    <g id="ytick_2">
     <g id="line2d_8">
      <g>
       <use style="stroke:#000000;stroke-width:0.8;" x="38.12375" xlink:href="#m2539f6623f" y="110.210462"/>
      </g>
     </g>
     <g id="text_9">
      <!-- 0.2 -->
      <g transform="translate(20.00375 113.073587)scale(0.08 -0.08)">
       <use xlink:href="#ArialMT-48"/>
       <use x="55.615234" xlink:href="#ArialMT-46"/>
       <use x="83.398438" xlink:href="#ArialMT-50"/>
      </g>
     </g>
    </g>
    <g id="ytick_3">
     <g id="line2d_9">
      <g>
       <use style="stroke:#000000;stroke-width:0.8;" x="38.12375" xlink:href="#m2539f6623f" y="85.537846"/>
      </g>
     </g>
     <g id="text_10">
      <!-- 0.4 -->
      <g transform="translate(20.00375 88.400971)scale(0.08 -0.08)">
       <use xlink:href="#ArialMT-48"/>
       <use x="55.615234" xlink:href="#ArialMT-46"/>
       <use x="83.398438" xlink:href="#ArialMT-52"/>
      </g>
     </g>
    </g>
    <g id="ytick_4">
     <g id="line2d_10">
      <g>
       <use style="stroke:#000000;stroke-width:0.8;" x="38.12375" xlink:href="#m2539f6623f" y="60.865231"/>
      </g>
     </g>
     <g id="text_11">
      <!-- 0.6 -->
      <g transform="translate(20.00375 63.728356)scale(0.08 -0.08)">
       <use xlink:href="#ArialMT-48"/>
       <use x="55.615234" xlink:href="#ArialMT-46"/>
       <use x="83.398438" xlink:href="#ArialMT-54"/>
      </g>
     </g>
    </g>
    <g id="ytick_5">
     <g id="line2d_11">
      <g>
       <use style="stroke:#000000;stroke-width:0.8;" x="38.12375" xlink:href="#m2539f6623f" y="36.192615"/>
      </g>
     </g>
     <g id="text_12">
      <!-- 0.8 -->
      <g transform="translate(20.00375 39.05574)scale(0.08 -0.08)">
       <use xlink:href="#ArialMT-48"/>
       <use x="55.615234" xlink:href="#ArialMT-46"/>
       <use x="83.398438" xlink:href="#ArialMT-56"/>
      </g>
     </g>
    </g>
    <g id="ytick_6">
     <g id="line2d_12">
      <g>
       <use style="stroke:#000000;stroke-width:0.8;" x="38.12375" xlink:href="#m2539f6623f" y="11.52"/>
      </g>
     </g>
     <g id="text_13">
      <!-- 1.0 -->
      <g transform="translate(20.00375 14.383125)scale(0.08 -0.08)">
       <use xlink:href="#ArialMT-49"/>
       <use x="55.615234" xlink:href="#ArialMT-46"/>
       <use x="83.398438" xlink:href="#ArialMT-48"/>
      </g>
     </g>
    </g>
    <g id="text_14">
     <!-- Regret -->
     <defs>
      <path d="M 42.09375 16.703125 
L 51.171875 15.578125 
Q 49.03125 7.625 43.21875 3.21875 
Q 37.40625 -1.171875 28.375 -1.171875 
Q 17 -1.171875 10.328125 5.828125 
Q 3.65625 12.84375 3.65625 25.484375 
Q 3.65625 38.578125 10.390625 45.796875 
Q 17.140625 53.03125 27.875 53.03125 
Q 38.28125 53.03125 44.875 45.953125 
Q 51.46875 38.875 51.46875 26.03125 
Q 51.46875 25.25 51.421875 23.6875 
L 12.75 23.6875 
Q 13.234375 15.140625 17.578125 10.59375 
Q 21.921875 6.0625 28.421875 6.0625 
Q 33.25 6.0625 36.671875 8.59375 
Q 40.09375 11.140625 42.09375 16.703125 
z
M 13.234375 30.90625 
L 42.1875 30.90625 
Q 41.609375 37.453125 38.875 40.71875 
Q 34.671875 45.796875 27.984375 45.796875 
Q 21.921875 45.796875 17.796875 41.75 
Q 13.671875 37.703125 13.234375 30.90625 
z
" id="ArialMT-101"/>
      <path d="M 4.984375 -4.296875 
L 13.53125 -5.5625 
Q 14.0625 -9.515625 16.5 -11.328125 
Q 19.78125 -13.765625 25.4375 -13.765625 
Q 31.546875 -13.765625 34.859375 -11.328125 
Q 38.1875 -8.890625 39.359375 -4.5 
Q 40.046875 -1.8125 39.984375 6.78125 
Q 34.234375 0 25.640625 0 
Q 14.9375 0 9.078125 7.71875 
Q 3.21875 15.4375 3.21875 26.21875 
Q 3.21875 33.640625 5.90625 39.90625 
Q 8.59375 46.1875 13.6875 49.609375 
Q 18.796875 53.03125 25.6875 53.03125 
Q 34.859375 53.03125 40.828125 45.609375 
L 40.828125 51.859375 
L 48.921875 51.859375 
L 48.921875 7.03125 
Q 48.921875 -5.078125 46.453125 -10.125 
Q 44 -15.1875 38.640625 -18.109375 
Q 33.296875 -21.046875 25.484375 -21.046875 
Q 16.21875 -21.046875 10.5 -16.875 
Q 4.78125 -12.703125 4.984375 -4.296875 
z
M 12.25 26.859375 
Q 12.25 16.65625 16.296875 11.96875 
Q 20.359375 7.28125 26.46875 7.28125 
Q 32.515625 7.28125 36.609375 11.9375 
Q 40.71875 16.609375 40.71875 26.5625 
Q 40.71875 36.078125 36.5 40.90625 
Q 32.28125 45.75 26.3125 45.75 
Q 20.453125 45.75 16.34375 40.984375 
Q 12.25 36.234375 12.25 26.859375 
z
" id="ArialMT-103"/>
      <path d="M 6.5 0 
L 6.5 51.859375 
L 14.40625 51.859375 
L 14.40625 44 
Q 17.4375 49.515625 20 51.265625 
Q 22.5625 53.03125 25.640625 53.03125 
Q 30.078125 53.03125 34.671875 50.203125 
L 31.640625 42.046875 
Q 28.421875 43.953125 25.203125 43.953125 
Q 22.3125 43.953125 20.015625 42.21875 
Q 17.71875 40.484375 16.75 37.40625 
Q 15.28125 32.71875 15.28125 27.15625 
L 15.28125 0 
z
" id="ArialMT-114"/>
      <path d="M 25.78125 7.859375 
L 27.046875 0.09375 
Q 23.34375 -0.6875 20.40625 -0.6875 
Q 15.625 -0.6875 12.984375 0.828125 
Q 10.359375 2.34375 9.28125 4.8125 
Q 8.203125 7.28125 8.203125 15.1875 
L 8.203125 45.015625 
L 1.765625 45.015625 
L 1.765625 51.859375 
L 8.203125 51.859375 
L 8.203125 64.703125 
L 16.9375 69.96875 
L 16.9375 51.859375 
L 25.78125 51.859375 
L 25.78125 45.015625 
L 16.9375 45.015625 
L 16.9375 14.703125 
Q 16.9375 10.9375 17.40625 9.859375 
Q 17.875 8.796875 18.921875 8.15625 
Q 19.96875 7.515625 21.921875 7.515625 
Q 23.390625 7.515625 25.78125 7.859375 
z
" id="ArialMT-116"/>
     </defs>
     <g transform="translate(14.32 85.206538)rotate(-90)scale(0.08 -0.08)">
      <use xlink:href="#ArialMT-82"/>
      <use x="72.216797" xlink:href="#ArialMT-101"/>
      <use x="127.832031" xlink:href="#ArialMT-103"/>
      <use x="183.447266" xlink:href="#ArialMT-114"/>
      <use x="216.748047" xlink:href="#ArialMT-101"/>
      <use x="272.363281" xlink:href="#ArialMT-116"/>
     </g>
    </g>
   </g>
   <g id="line2d_13">
    <path clip-path="url(#p94c46c80da)" d="M 45.955766 64.724751 
L 47.537991 64.733679 
L 49.120217 67.63066 
L 50.702442 67.941017 
L 52.284668 69.72594 
L 53.866893 74.077189 
L 55.449118 74.724791 
L 57.031344 75.253517 
L 58.613569 76.90713 
L 60.195795 79.574525 
L 61.77802 84.568748 
L 63.360246 86.114046 
L 64.942471 89.664415 
L 66.524696 89.455864 
L 68.106922 92.806032 
L 69.689147 94.640008 
L 71.271373 94.790362 
L 72.853598 94.789807 
L 74.435824 94.863333 
L 76.018049 95.853073 
L 77.600274 95.792756 
L 79.1825 95.863271 
L 80.764725 95.834949 
L 82.346951 95.97973 
L 83.929176 96.168789 
L 85.511402 96.139454 
L 87.093627 96.326854 
L 88.675852 96.708691 
L 90.258078 96.708691 
L 91.840303 97.168121 
L 93.422529 97.896185 
L 95.004754 97.704431 
L 96.58698 95.806061 
L 98.169205 104.881073 
L 99.75143 104.950919 
L 101.333656 104.583959 
L 102.915881 104.391903 
L 104.498107 104.391903 
L 106.080332 104.391903 
L 107.662558 104.391903 
L 109.244783 104.733941 
L 110.827008 104.539439 
L 112.409234 104.539439 
L 113.991459 104.355317 
L 115.573685 105.027688 
L 117.15591 104.865073 
L 118.738136 104.865073 
L 120.320361 104.865073 
L 121.902586 105.600434 
L 123.484812 105.624382 
L 125.067037 105.922 
L 126.649263 105.9998 
L 128.231488 105.070612 
L 129.813714 105.108946 
L 131.395939 105.177662 
L 132.978164 105.051412 
L 134.56039 105.051412 
L 136.142615 104.940766 
L 137.724841 104.962654 
L 139.307066 105.245433 
L 140.889292 105.245433 
L 142.471517 105.245433 
L 144.053742 105.245433 
L 145.635968 105.245433 
L 147.218193 105.245433 
L 148.800419 107.86893 
L 150.382644 107.910644 
L 151.96487 107.941817 
L 153.547095 107.941817 
L 155.12932 107.941817 
L 156.711546 108.522622 
L 158.293771 108.522622 
L 159.875997 108.522622 
L 161.458222 108.522622 
L 163.040448 108.464342 
L 164.622673 108.464342 
L 166.204898 108.438882 
L 167.787124 108.535769 
L 169.369349 108.535769 
L 170.951575 108.535769 
L 172.5338 108.493498 
L 174.116026 109.209 
L 175.698251 109.209 
L 177.280476 109.209 
L 178.862702 109.209 
L 180.444927 109.209 
L 182.027153 109.209 
L 183.609378 109.281303 
L 185.191604 109.449242 
L 186.773829 109.449242 
L 188.356054 109.449242 
L 189.93828 109.449242 
L 191.520505 109.643701 
L 193.102731 109.643701 
L 194.684956 109.643701 
L 196.267182 109.523147 
L 197.849407 109.540119 
L 199.431632 109.540119 
L 201.013858 109.932048 
L 202.596083 109.932048 
" style="fill:none;stroke:#d62728;stroke-linecap:square;stroke-width:1.5;"/>
   </g>
   <g id="patch_3">
    <path d="M 38.12375 134.883077 
L 38.12375 11.52 
" style="fill:none;stroke:#000000;stroke-linecap:square;stroke-linejoin:miter;stroke-width:0.8;"/>
   </g>
   <g id="patch_4">
    <path d="M 210.428099 134.883077 
L 210.428099 11.52 
" style="fill:none;stroke:#000000;stroke-linecap:square;stroke-linejoin:miter;stroke-width:0.8;"/>
   </g>
   <g id="patch_5">
    <path d="M 38.12375 134.883077 
L 210.428099 134.883077 
" style="fill:none;stroke:#000000;stroke-linecap:square;stroke-linejoin:miter;stroke-width:0.8;"/>
   </g>
   <g id="patch_6">
    <path d="M 38.12375 11.52 
L 210.428099 11.52 
" style="fill:none;stroke:#000000;stroke-linecap:square;stroke-linejoin:miter;stroke-width:0.8;"/>
   </g>
  </g>
 </g>
 <defs>
  <clipPath id="p94c46c80da">
   <rect height="123.363077" width="172.304349" x="38.12375" y="11.52"/>
  </clipPath>
 </defs>
</svg>
